<?xml version="1.0" encoding="utf-8"?><svg xmlns="http://www.w3.org/2000/svg" xmlns:xlink="http://www.w3.org/1999/xlink" width="1536" height="560" preserveAspectRatio="xMidYMid" viewBox="0 0 1536 560" style="z-index:1;margin-right:-2px;display:block;background-repeat-y:initial;background-repeat-x:initial;background-color:rgb(255, 255, 255);animation-play-state:paused" ><g transform="translate(768,280) scale(1,1) translate(-768,-280)" style="transform:matrix(1, 0, 0, 1, 0, 0);animation-play-state:paused" ><linearGradient id="lg-0.46612867952343584" x1="0" x2="1" y1="0" y2="0" style="animation-play-state:paused" ><stop stop-color="#4534aa" offset="0" style="animation-play-state:paused" ></stop>

  
<stop stop-color="#4534aa" offset="1" style="animation-play-state:paused" ></stop></linearGradient>
<path d="M 0 0 L 0 432.227 Q 153.6 465.358 307.2 429.947 T 614.4 468.539 T 921.6 431.954 T 1228.8 434.186 T 1536 466.109 L 1536 0 Z" fill="url(#lg-0.46612867952343584)" opacity="0.4" style="opacity:0.4;animation-play-state:paused" ></path>
<path d="M 0 0 L 0 452.369 Q 153.6 462.144 307.2 434.543 T 614.4 474.606 T 921.6 449.961 T 1228.8 462.713 T 1536 468.727 L 1536 0 Z" fill="url(#lg-0.46612867952343584)" opacity="0.4" style="opacity:0.4;animation-play-state:paused" ></path>
<path d="M 0 0 L 0 453.133 Q 153.6 504.342 307.2 476.996 T 614.4 435.716 T 921.6 483.807 T 1228.8 471.53 T 1536 473.825 L 1536 0 Z" fill="url(#lg-0.46612867952343584)" opacity="0.4" style="opacity:0.4;animation-play-state:paused" ></path>
<path d="M 0 0 L 0 446.77 Q 153.6 474.262 307.2 442.641 T 614.4 470.541 T 921.6 467.324 T 1228.8 447.341 T 1536 448 L 1536 0 Z" fill="url(#lg-0.46612867952343584)" opacity="0.4" style="opacity:0.4;animation-play-state:paused" ></path>
<path d="M 0 0 L 0 444.518 Q 153.6 489.964 307.2 468.973 T 614.4 458.506 T 921.6 459.135 T 1228.8 469.759 T 1536 449.51 L 1536 0 Z" fill="url(#lg-0.46612867952343584)" opacity="0.4" style="opacity:0.4;animation-play-state:paused" ></path></g></svg>