<?xml version="1.0" encoding="utf-8"?><svg xmlns="http://www.w3.org/2000/svg" xmlns:xlink="http://www.w3.org/1999/xlink" width="1536" height="616" preserveAspectRatio="xMidYMid" viewBox="0 0 1536 616" style="z-index:1;margin-right:-2px;display:block;background-repeat-y:initial;background-repeat-x:initial;background-color:rgb(255, 255, 255);animation-play-state:paused" ><g transform="translate(768,308) scale(1,1) translate(-768,-308)" style="transform:matrix(1, 0, 0, 1, 0, 0);animation-play-state:paused" ><g transform="translate(1305.6,308) scale(100)" opacity="0.6799999999999999" style="transform:matrix(100, 0, 0, 100, 1305.6, 308);opacity:0.68;animation-play-state:paused" ><path d="M5.3759999999999994 0 C5.3759999999999994 1.2364799999999998 5.2739925707451425 1.6171769087286167 4.655752570745142 2.6879999999999993 S3.758823091271383 4.037512570745141 2.688 4.6557525707451415 S1.23648 5.3759999999999994 3.291850596108085e-16 5.3759999999999994 S-1.6171769087286159 5.273992570745142 -2.6879999999999984 4.655752570745142 S-4.0375125707451405 3.758823091271384 -4.655752570745141 2.6880000000000015 S-5.3759999999999994 1.2364800000000005 -5.3759999999999994 6.58370119221617e-16 S-5.273992570745142 -1.6171769087286156 -4.655752570745142 -2.6879999999999984 S-3.7588230912713843 -4.0375125707451405 -2.688000000000002 -4.655752570745141 S-1.2364800000000007 -5.3759999999999994 -9.875551788324254e-16 -5.3759999999999994 S1.6171769087286132 -5.273992570745143 2.687999999999996 -4.655752570745144 S4.0375125707451405 -3.758823091271384 4.655752570745141 -2.688000000000002 S5.3759999999999994 -1.2364800000000011 5.3759999999999994 -1.316740238443234e-15" fill="#4534aa" stroke-width="0" transform="matrix(1,0,0,1,0,0)" style="transform:matrix(1, 0, 0, 1, 0, 0);animation-play-state:paused" ></path></g>
<g transform="translate(1413.12,308) scale(100)" opacity="0.6799999999999999" style="transform:matrix(100, 0, 0, 100, 1413.12, 308);opacity:0.68;animation-play-state:paused" ><path d="M6.451199999999999 0 C6.451199999999999 1.4837759999999998 6.32879108489417 1.94061229047434 5.58690308489417 3.225599999999999 S4.51058770952566 4.845015084894169 3.2256000000000005 5.586903084894169 S1.4837760000000002 6.451199999999999 3.950220715329702e-16 6.451199999999999 S-1.940612290474339 6.32879108489417 -3.2255999999999982 5.58690308489417 S-4.845015084894168 4.510587709525661 -5.5869030848941685 3.225600000000002 S-6.451199999999999 1.4837760000000006 -6.451199999999999 7.900441430659404e-16 S-6.328791084894171 -1.9406122904743386 -5.586903084894171 -3.225599999999998 S-4.510587709525661 -4.845015084894168 -3.2256000000000022 -5.5869030848941685 S-1.4837760000000009 -6.451199999999999 -1.1850662145989106e-15 -6.451199999999999 S1.9406122904743355 -6.328791084894171 3.225599999999995 -5.586903084894172 S4.845015084894168 -4.510587709525661 5.5869030848941685 -3.2256000000000022 S6.451199999999999 -1.4837760000000013 6.451199999999999 -1.5800882861318808e-15" fill="#4534aa" stroke-width="0" transform="matrix(1,0,0,1,0,0)" style="transform:matrix(1, 0, 0, 1, 0, 0);animation-play-state:paused" ></path></g>
<g transform="translate(1671.1679999999997,308) scale(100)" opacity="0.6799999999999999" style="transform:matrix(100, 0, 0, 100, 1671.17, 308);opacity:0.68;animation-play-state:paused" ><path d="M9.031679999999998 0 C9.031679999999998 2.0772863999999993 8.860307518851837 2.7168572066640757 7.8216643188518375 4.515839999999998 S6.314822793335922 6.783021118851837 4.51584 7.821664318851837 S2.0772863999999998 9.031679999999998 5.530309001461582e-16 9.031679999999998 S-2.716857206664075 8.860307518851837 -4.515839999999997 7.8216643188518375 S-6.783021118851836 6.314822793335924 -7.821664318851836 4.515840000000002 S-9.031679999999998 2.0772864 -9.031679999999998 1.1060618002923165e-15 S-8.860307518851837 -2.7168572066640735 -7.821664318851838 -4.515839999999996 S-6.314822793335925 -6.783021118851835 -4.515840000000003 -7.821664318851836 S-2.077286400000001 -9.031679999999998 -1.6590927004384745e-15 -9.031679999999998 S2.7168572066640695 -8.860307518851839 4.515839999999993 -7.82166431885184 S6.783021118851835 -6.314822793335925 7.821664318851835 -4.515840000000003 S9.031679999999998 -2.0772864000000015 9.031679999999998 -2.212123600584633e-15" fill="#4534aa" stroke-width="0" transform="matrix(1,0,0,1,0,0)" style="transform:matrix(1, 0, 0, 1, 0, 0);animation-play-state:paused" ></path></g></g></svg>