<?xml version="1.0" encoding="utf-8"?><svg xmlns="http://www.w3.org/2000/svg" xmlns:xlink="http://www.w3.org/1999/xlink" width="1535" height="762" preserveAspectRatio="xMidYMid" viewBox="0 0 1535 762" style="z-index:1;margin-right:-2px;display:block;background-repeat-y:initial;background-repeat-x:initial;background-color:rgb(255, 255, 255);animation-play-state:paused" ><g transform="translate(767.5,381) scale(1,1) translate(-767.5,-381)" style="transform:matrix(1, 0, 0, 1, 0, 0);animation-play-state:paused" ><g transform="translate(1147.3931181924727,1.1068818075273725) scale(100)" opacity="0.71" style="transform:matrix(100, 0, 0, 100, 1147.39, 1.10688);opacity:0.71;animation-play-state:paused" ><path d="M5.2113249999999995 0 C5.2113249999999995 1.2356749999999999 5.410140626286854 1.6967115591786632 4.792303126286853 2.7668374999999994 S3.675788440821336 3.895302337376939 2.6056625 4.513139837376939 S1.2356750000000003 5.533675 3.3883986881358645e-16 5.533675 S-1.5355365591786623 5.130977337376939 -2.6056624999999984 4.51313983737694 S-4.174465626286852 3.8369634408213376 -4.7923031262868525 2.7668375000000016 S-5.2113249999999995 1.2356750000000005 -5.2113249999999995 6.38203248056658e-16 S-5.410140626286854 -1.6967115591786621 -4.792303126286854 -2.7668374999999985 S-3.675788440821338 -3.895302337376938 -2.605662500000002 -4.513139837376938 S-1.235675000000001 -5.533675 -1.0165196064407593e-15 -5.533675 S1.5355365591786596 -5.130977337376941 2.605662499999996 -4.513139837376942 S4.174465626286851 -3.8369634408213384 4.792303126286852 -2.7668375000000025 S5.2113249999999995 -1.2356750000000012 5.2113249999999995 -1.276406496113316e-15" fill="#4534aa" stroke-width="0" transform="matrix(1,0,0,1,0,0)" style="transform:matrix(1, 0, 0, 1, 0, 0);animation-play-state:paused" ></path></g>
<g transform="translate(1223.371741830967,-74.8717418309671) scale(100)" opacity="0.71" style="transform:matrix(100, 0, 0, 100, 1223.37, -74.8717);opacity:0.71;animation-play-state:paused" ><path d="M6.253589999999999 0 C6.253589999999999 1.4828099999999997 6.492168751544224 2.0360538710143956 5.750763751544224 3.320204999999999 S4.410946128985604 4.6743628048523265 3.1267950000000004 5.415767804852327 S1.4828100000000002 6.640409999999999 4.0660784257630376e-16 6.640409999999999 S-1.8426438710143949 6.157172804852327 -3.126794999999998 5.415767804852328 S-5.009358751544222 4.6043561289856045 -5.7507637515442225 3.320205000000002 S-6.253589999999999 1.4828100000000004 -6.253589999999999 7.658438976679895e-16 S-6.492168751544225 -2.0360538710143943 -5.750763751544225 -3.320204999999998 S-4.410946128985605 -4.674362804852326 -3.126795000000002 -5.415767804852326 S-1.4828100000000008 -6.640409999999999 -1.2198235277289112e-15 -6.640409999999999 S1.8426438710143918 -6.157172804852328 3.1267949999999956 -5.4157678048523294 S5.009358751544221 -4.604356128985605 5.750763751544222 -3.3202050000000027 S6.253589999999999 -1.4828100000000013 6.253589999999999 -1.531687795335979e-15" fill="#4534aa" stroke-width="0" transform="matrix(1,0,0,1,0,0)" style="transform:matrix(1, 0, 0, 1, 0, 0);animation-play-state:paused" ></path></g>
<g transform="translate(1405.720438563354,-257.2204385633539) scale(100)" opacity="0.71" style="transform:matrix(100, 0, 0, 100, 1405.72, -257.22);opacity:0.71;animation-play-state:paused" ><path d="M8.755025999999999 0 C8.755025999999999 2.0759339999999993 9.089036252161913 2.8504754194201536 8.051069252161913 4.648286999999998 S6.1753245805798445 6.544107926793258 4.377513 7.582074926793258 S2.0759339999999997 9.296573999999998 5.692509796068252e-16 9.296573999999998 S-2.5797014194201533 8.620041926793258 -4.377512999999998 7.582074926793259 S-7.013102252161911 6.446098580579846 -8.051069252161911 4.648287000000002 S-8.755025999999999 2.075934 -8.755025999999999 1.0721814567351855e-15 S-9.089036252161913 -2.8504754194201514 -8.051069252161914 -4.648286999999996 S-6.175324580579847 -6.544107926793256 -4.377513000000003 -7.582074926793257 S-2.075934000000001 -9.296573999999998 -1.7077529388204753e-15 -9.296573999999998 S2.5797014194201484 -8.62004192679326 4.377512999999993 -7.582074926793261 S7.013102252161909 -6.4460985805798465 8.05106925216191 -4.648287000000003 S8.755025999999999 -2.0759340000000015 8.755025999999999 -2.144362913470371e-15" fill="#4534aa" stroke-width="0" transform="matrix(1,0,0,1,0,0)" style="transform:matrix(1, 0, 0, 1, 0, 0);animation-play-state:paused" ></path></g>
<g transform="translate(1788.6527017013664,-640.1527017013663) scale(100)" opacity="0.71" style="transform:matrix(100, 0, 0, 100, 1788.65, -640.153);opacity:0.71;animation-play-state:paused" ><path d="M14.008041599999997 0 C14.008041599999997 3.3214943999999993 14.54245800345906 4.560760671072247 12.881710803459061 7.437259199999998 S9.88051932892775 10.47057268286921 7.0040208 12.13131988286921 S3.3214944 14.874518399999998 9.108015673709203e-16 14.874518399999998 S-4.127522271072244 13.792067082869211 -7.004020799999995 12.131319882869212 S-11.220963603459056 10.313757728927754 -12.881710803459058 7.437259200000004 S-14.008041599999997 3.321494400000001 -14.008041599999997 1.7154903307762965e-15 S-14.542458003459062 -4.560760671072243 -12.881710803459063 -7.437259199999994 S-9.880519328927756 -10.470572682869207 -7.004020800000005 -12.131319882869208 S-3.321494400000002 -14.874518399999998 -2.7324047021127607e-15 -14.874518399999998 S4.127522271072236 -13.792067082869215 7.004020799999989 -12.131319882869217 S11.220963603459055 -10.313757728927754 12.881710803459056 -7.437259200000005 S14.008041599999997 -3.321494400000003 14.008041599999997 -3.430980661552593e-15" fill="#4534aa" stroke-width="0" transform="matrix(1,0,0,1,0,0)" style="transform:matrix(1, 0, 0, 1, 0, 0);animation-play-state:paused" ></path></g></g></svg>