<svg class="animated" id="freepik_stories-make-it-rain" xmlns="http://www.w3.org/2000/svg" viewBox="0 0 500 500" version="1.1" xmlns:xlink="http://www.w3.org/1999/xlink" xmlns:svgjs="http://svgjs.com/svgjs"><style>svg#freepik_stories-make-it-rain:not(.animated) .animable {opacity: 0;}svg#freepik_stories-make-it-rain.animated #freepik--background-complete--inject-93 {animation: 1s 1 forwards cubic-bezier(.36,-0.01,.5,1.38) slideDown;animation-delay: 0s;}svg#freepik_stories-make-it-rain.animated #freepik--Floor--inject-93 {animation: 1s 1 forwards cubic-bezier(.36,-0.01,.5,1.38) slideDown;animation-delay: 0s;}svg#freepik_stories-make-it-rain.animated #freepik--Character--inject-93 {animation: 1s 1 forwards cubic-bezier(.36,-0.01,.5,1.38) slideDown;animation-delay: 0s;}svg#freepik_stories-make-it-rain.animated #freepik--Stars--inject-93 {animation: 1s 1 forwards cubic-bezier(.36,-0.01,.5,1.38) slideDown;animation-delay: 0s;}svg#freepik_stories-make-it-rain.animated #freepik--floating-money--inject-93 {animation: 1s 1 forwards cubic-bezier(.36,-0.01,.5,1.38) slideDown,1.5s Infinite  linear floating;animation-delay: 0s,1s;}svg#freepik_stories-make-it-rain.animated #freepik--Money--inject-93 {animation: 1s 1 forwards cubic-bezier(.36,-0.01,.5,1.38) slideDown;animation-delay: 0s;}            @keyframes slideDown {                0% {                    opacity: 0;                    transform: translateY(-30px);                }                100% {                    opacity: 1;                    transform: translateY(0);                }            }                    @keyframes floating {                0% {                    opacity: 1;                    transform: translateY(0px);                }                50% {                    transform: translateY(-10px);                }                100% {                    opacity: 1;                    transform: translateY(0px);                }            }        </style><g id="freepik--background-complete--inject-93" class="animable" style="transform-origin: 272.82px 258.162px;"><path d="M204.49,456.1c23.41-15.21,29.6-44.69,29.6-71.38,0-4.45.65-9.12-1.33-13.1s-6.83-6.81-10.88-5.07c-3.36,1.44-4.93,5.24-6.89,8.35a26.05,26.05,0,0,1-10.77,9.62c-2.88,1.37-6.42,2.15-9.17.51-3.76-2.24-4-7.56-3.86-12q.5-12.37,1-24.74c.17-4.42.34-8.94-.89-13.19s-4.15-8.25-8.32-9.57-9.46.93-10.49,5.23c-.43,1.79-.13,3.67-.31,5.5s-1.11,3.84-2.88,4.29-3.51-.85-4.79-2.19c-4.41-4.63-7.32-10.49-10-16.31s-5.32-11.78-9.3-16.79-9.58-9.08-15.9-9.65-13.22,3.11-15,9.28,1.61,12.64,5.4,17.82A99,99,0,0,0,139.56,343c1.36,1,2.84,2.15,3.32,3.81.86,3-2,5.82-5,6.69-3.34,1-6.91.52-10.37.81s-7.26,1.69-8.67,4.91c-2,4.46,1.65,9.33,5.27,12.56a84.8,84.8,0,0,0,24.56,15.31c3.21,1.3,6.6,2.46,9.15,4.84s4,6.4,2.31,9.47-5.8,3.92-9.19,3.17-6.38-2.7-9.59-4c-6-2.51-13.87-2.35-17.94,2.77-2.68,3.37-3.07,8.17-1.91,12.34s3.66,7.79,6.33,11.16c9.36,11.77,21.53,21.4,35.47,26.77s27,7.14,41.17,2.49" style="fill: rgb(235, 235, 235); transform-origin: 174.007px 377.166px;" id="elc6grz8tqe3s" class="animable"></path><path d="M201.77,457c-.61-10.59-.1-4.23-3.59-17.81a397.52,397.52,0,0,0-14.3-43.23q-2.19-5.64-4.33-11.14c-1.43-3.65-2.84-7.27-4.45-10.73a197.16,197.16,0,0,0-10.36-19.34c-3.59-6-7.22-11.55-10.65-16.72s-6.74-9.91-9.93-14.12a157.49,157.49,0,0,0-16.53-18.69c-2.11-2.05-3.81-3.58-5-4.61l-1.33-1.15a3.36,3.36,0,0,0-.47-.38,2.52,2.52,0,0,0,.42.44l1.27,1.22c1.12,1.06,2.78,2.63,4.86,4.71a165.6,165.6,0,0,1,16.29,18.82c3.15,4.21,6.42,9,9.83,14.14s7,10.75,10.57,16.73a199.48,199.48,0,0,1,10.28,19.29c1.59,3.44,3,7,4.42,10.69l4.32,11.14a406.13,406.13,0,0,1,14.33,43.12c3.52,13.53,3.07,7.11,3.75,17.66" style="fill: rgb(224, 224, 224); transform-origin: 161.3px 378.06px;" id="elv1ok51cp0ck" class="animable"></path><path d="M174.87,374a9.41,9.41,0,0,0,.5-1.87c.27-1.22.61-3,1-5.18.78-4.39,1.64-10.48,2.57-17.2s1.88-12.79,2.72-17.15c.41-2.18.76-3.94,1-5.16a8.58,8.58,0,0,0,.31-1.91,9.2,9.2,0,0,0-.62,1.83c-.35,1.2-.79,2.95-1.28,5.12-1,4.35-2,10.42-3,17.15s-1.71,12.64-2.33,17.22c-.3,2.07-.55,3.82-.75,5.22A8.38,8.38,0,0,0,174.87,374Z" style="fill: rgb(224, 224, 224); transform-origin: 178.914px 349.765px;" id="el86sq1vothkq" class="animable"></path><path d="M118.33,361.44a11.75,11.75,0,0,0,2.26.35c1.46.18,3.56.43,6.16.82,5.19.74,12.33,2,20.14,3.76s14.81,3.66,19.84,5.18c2.52.74,4.54,1.39,5.94,1.84a12.56,12.56,0,0,0,2.2.62,11.46,11.46,0,0,0-2.1-.92c-1.37-.54-3.37-1.28-5.87-2.1-5-1.66-12-3.65-19.83-5.42A201.26,201.26,0,0,0,126.82,362c-2.61-.31-4.73-.47-6.2-.56A13.39,13.39,0,0,0,118.33,361.44Z" style="fill: rgb(224, 224, 224); transform-origin: 146.6px 367.7px;" id="eliob8ewyl5m" class="animable"></path><path d="M197.51,438.08a2.75,2.75,0,0,0,.42-.68l1-2c.9-1.76,2.13-4.34,3.61-7.56,3-6.42,6.78-15.43,10.86-25.42s7.81-19,10.64-25.5c1.39-3.15,2.53-5.74,3.37-7.67.37-.83.66-1.52.91-2.09a2.54,2.54,0,0,0,.26-.75,3.5,3.5,0,0,0-.41.68l-1,2c-.9,1.77-2.13,4.35-3.61,7.57-3,6.42-6.79,15.43-10.87,25.42s-7.81,19-10.64,25.5c-1.38,3.15-2.52,5.74-3.37,7.66l-.9,2.1A3.4,3.4,0,0,0,197.51,438.08Z" style="fill: rgb(224, 224, 224); transform-origin: 213.045px 402.245px;" id="elidgfx0qsall" class="animable"></path><path d="M122.73,411.15a3.16,3.16,0,0,0,.74.33l2.17.81,8,2.9c6.77,2.45,16.07,5.94,26.34,9.81s19.61,7.28,26.42,9.59c3.41,1.15,6.18,2.06,8.1,2.65l2.22.66a2.61,2.61,0,0,0,.79.18,3.14,3.14,0,0,0-.74-.34l-2.17-.81-8-2.89c-6.76-2.45-16.06-5.94-26.33-9.81s-19.61-7.28-26.43-9.59c-3.4-1.16-6.17-2.06-8.09-2.65l-2.22-.67A2.74,2.74,0,0,0,122.73,411.15Z" style="fill: rgb(224, 224, 224); transform-origin: 160.12px 424.615px;" id="elgktw3dwmuit" class="animable"></path><path d="M395.56,230.62s-12.06-6.37-23.21,22.08-14.84,44.59-14.84,44.59-3.1,6-7.36,2.71-10.64-13.33-17.08-10.78c-6.69,2.64-8.2,10.53-5.78,21.68s6.82,35.76,7.21,38-.56,5.56-3.83,3.76-22.81-19.69-30.74-9.91,3.91,39.72,5.14,43,.71,4.81-.82,5.81-7.52-5.64-13.29-10.5-13.3-9.48-17.41-3.45-3.32,29.28,22.37,64.67l13,15.62,20.15-3.11c42.73-9.3,58.8-26.13,59.76-33.36s-7.75-8.8-15.29-9-16.43.73-16.91-1,.15-3.23,3.26-4.87,31.89-16.1,32.48-28.67-25.89-12.25-29.53-13.08-2.1-4-.36-5.35,21.45-16.84,30.68-23.54,13.35-13.6,10.13-20c-3.11-6.19-14.53-3-19.93-3.33s-3.68-6.92-3.68-6.92,8-14.51,18.62-43.16-3-31.94-3-31.94" style="fill: rgb(235, 235, 235); transform-origin: 338.03px 343.955px;" id="elbor9ymj3d2h" class="animable"></path><path d="M309.39,453.5c7.89-21,19-49.94,31.45-81.87s23.61-60.82,31.61-81.79L381.89,265l2.58-6.75.68-1.75c.16-.4.25-.59.25-.59s0,.21-.19.61l-.63,1.77-2.46,6.8c-2.14,5.9-5.3,14.41-9.25,24.91-7.89,21-19,49.95-31.44,81.86s-23.62,60.83-31.62,81.8" style="fill: rgb(224, 224, 224); transform-origin: 347.395px 354.785px;" id="ele4xd5xi9u1s" class="animable"></path><path d="M341.29,303.39a6.68,6.68,0,0,1,.64,1.32c.38.86.89,2.13,1.51,3.7,1.24,3.14,2.83,7.52,4.5,12.39s3.1,9.15,4.22,12.47l1.31,3.77a6.43,6.43,0,0,1,.42,1.41,7.07,7.07,0,0,1-.65-1.32c-.38-.86-.89-2.13-1.49-3.71-1.21-3.15-2.74-7.55-4.41-12.42L343,308.56l-1.33-3.76A6.68,6.68,0,0,1,341.29,303.39Z" style="fill: rgb(224, 224, 224); transform-origin: 347.59px 320.92px;" id="ely3ttazma6t9" class="animable"></path><path d="M355.79,338.62c-.07-.16,8.82-3.84,19.85-8.21s20-7.8,20.08-7.64-8.82,3.85-19.85,8.22S355.85,338.79,355.79,338.62Z" style="fill: rgb(224, 224, 224); transform-origin: 375.755px 330.695px;" id="elsdgmrw8gjgk" class="animable"></path><path d="M334.52,386.78a6.59,6.59,0,0,1,1.48-.21l4.06-.39c3.42-.33,8.15-.8,13.34-1.52s9.89-1.5,13.27-2.11l4-.71a6.51,6.51,0,0,1,1.49-.19,7.22,7.22,0,0,1-1.44.43c-.93.24-2.29.56-4,.91-3.37.72-8.06,1.59-13.27,2.3s-10,1.12-13.4,1.34c-1.72.1-3.11.16-4.07.18A6.45,6.45,0,0,1,334.52,386.78Z" style="fill: rgb(224, 224, 224); transform-origin: 353.34px 384.244px;" id="elsyghdsavj6d" class="animable"></path><path d="M314.39,357.8a6.11,6.11,0,0,1,.9,1.05l2.27,3c1.89,2.55,4.47,6.11,7.29,10.06s5.35,7.55,7.15,10.17l2.1,3.12a6.22,6.22,0,0,1,.71,1.2,5.82,5.82,0,0,1-.91-1.05c-.61-.82-1.37-1.83-2.27-3-1.89-2.56-4.47-6.11-7.29-10.06s-5.34-7.55-7.14-10.17L315.09,359A5.34,5.34,0,0,1,314.39,357.8Z" style="fill: rgb(224, 224, 224); transform-origin: 324.6px 372.1px;" id="elx4qq1w5ynvm" class="animable"></path><path d="M290.21,397.93a8.84,8.84,0,0,1,1.14,1.36l2.93,3.84c2.44,3.26,5.78,7.79,9.44,12.82s6.95,9.6,9.31,12.93l2.76,4a8.93,8.93,0,0,1,.94,1.51,9.54,9.54,0,0,1-1.14-1.36l-2.92-3.85c-2.45-3.26-5.79-7.79-9.45-12.82s-7-9.6-9.31-12.93l-2.76-4A10.16,10.16,0,0,1,290.21,397.93Z" style="fill: rgb(224, 224, 224); transform-origin: 303.47px 416.16px;" id="elr8vjk02463b" class="animable"></path><path d="M316.34,433.3a9.69,9.69,0,0,1,1.87-.32l5.13-.68c4.33-.57,10.3-1.38,16.87-2.47s12.49-2.2,16.77-3.05l5.08-1a11.6,11.6,0,0,1,1.87-.3,9.4,9.4,0,0,1-1.82.54c-1.18.31-2.9.72-5,1.2-4.27,1-10.19,2.16-16.77,3.24s-12.57,1.83-16.92,2.29c-2.17.22-3.93.39-5.15.47A11.79,11.79,0,0,1,316.34,433.3Z" style="fill: rgb(224, 224, 224); transform-origin: 340.135px 429.395px;" id="elqxacjut242g" class="animable"></path><path d="M374.44,158.39s-5.74,7.51-16.93,5.38c-6.92-1.32-20.64-2-22.41,3.12l2.06,15.43a42.71,42.71,0,0,1,18.36-.15c9.11,2.19,22.27-4.27,22.27-4.27Z" style="fill: rgb(235, 235, 235); transform-origin: 356.445px 170.507px;" id="elpr3kxaypu2" class="animable"></path><path d="M355.8,180a7.44,7.44,0,0,1-6.61-9.11c1-3.74,6.6-5.47,10.34-4.44a7,7,0,0,1,4.91,8.64C363.41,178.79,359.67,180.32,355.8,180Z" style="fill: rgb(245, 245, 245); transform-origin: 356.846px 173.099px;" id="el6xmoc32lh65" class="animable"></path><path d="M354.69,177.21c0-.12.32-.16.82-.19a8.27,8.27,0,0,0,2-.24,3.27,3.27,0,0,0,1.07-.54,1.52,1.52,0,0,0,.59-.93,1.17,1.17,0,0,0-.34-1,1.91,1.91,0,0,0-1.31-.34l-1,0a3.82,3.82,0,0,1-1.22-.26,2.42,2.42,0,0,1-.6-.35,2.28,2.28,0,0,1-.5-.53,2.41,2.41,0,0,1-.38-1.29,2.45,2.45,0,0,1,1.08-2,3.56,3.56,0,0,1,1.66-.61,4.79,4.79,0,0,1,1.34,0,6,6,0,0,1,.93.23c.5.18.75.34.73.45s-.32.17-.82.2a9.38,9.38,0,0,0-2,.23,2.79,2.79,0,0,0-1,.54,1,1,0,0,0-.38.89.82.82,0,0,0,.15.43.7.7,0,0,0,.16.14.84.84,0,0,0,.23.12,6,6,0,0,0,1.7.13,5.36,5.36,0,0,1,1.2.16,3.18,3.18,0,0,1,.64.26,2.44,2.44,0,0,1,.57.43,2.69,2.69,0,0,1,.7,2.45,2.83,2.83,0,0,1-1.31,1.77,4,4,0,0,1-1.64.56,5.43,5.43,0,0,1-2.28-.27C354.92,177.49,354.67,177.32,354.69,177.21Z" style="fill: rgb(235, 235, 235); transform-origin: 357.296px 173.414px;" id="elwar53wgrspk" class="animable"></path><path d="M358.57,179c-.23,0-.71-2.47-1.08-5.58s-.48-5.65-.25-5.68.71,2.47,1.08,5.58S358.8,178.92,358.57,179Z" style="fill: rgb(235, 235, 235); transform-origin: 357.905px 173.37px;" id="el5j194iavetv" class="animable"></path><path d="M357.27,178.82c-.22,0-.68-2.24-1-5.06s-.42-5.14-.19-5.16.69,2.24,1,5.06S357.5,178.79,357.27,178.82Z" style="fill: rgb(235, 235, 235); transform-origin: 356.674px 173.71px;" id="elyvvbzjo4ap" class="animable"></path><g id="elbv9l97yrz6"><g style="opacity: 0.5; transform-origin: 356.32px 171.103px;" class="animable"><path d="M338.47,180.68l-1.83-14.05.11-.09c5.47-4,15.56-2.33,22.24-1.21,1.15.19,2.24.37,3.18.5,6.27.88,10.94-4.06,11.06-4.62l.5,0L376,176.31l-.13.09A29,29,0,0,1,352.67,180c-5.32-1.55-13.85.61-13.93.63Zm-1.3-13.82,1.72,13.2c1.53-.37,8.95-2,13.92-.56a28.47,28.47,0,0,0,22.6-3.43L373.34,162a10.88,10.88,0,0,1-1,1c-1.1,1-5.1,4.12-10.26,3.39-.94-.13-2-.31-3.19-.51C352.36,164.72,342.49,163.07,337.17,166.86Z" style="fill: rgb(250, 250, 250); transform-origin: 356.32px 171.103px;" id="ela3nrr8nwz5u" class="animable"></path></g></g><path d="M295.61,73.22s-9,3-17-5c-5-5-16-13.17-20.34-9.94l-6.91,14a42.52,42.52,0,0,1,15.31,10.13c6.34,6.9,20.86,8.89,20.86,8.89Z" style="fill: rgb(235, 235, 235); transform-origin: 273.485px 74.4226px;" id="elto1q5ajho4" class="animable"></path><path d="M268.11,80.69a7.43,7.43,0,0,1-.4-11.25c2.94-2.53,8.53-.85,11.06,2.09a7,7,0,0,1-.76,9.91C275.07,84,271.11,83.15,268.11,80.69Z" style="fill: rgb(245, 245, 245); transform-origin: 272.901px 75.599px;" id="el031gymldzgq" class="animable"></path><path d="M268.72,77.79c.09-.09.36,0,.78.3a8.5,8.5,0,0,0,1.77.89,2.94,2.94,0,0,0,1.19.15,1.5,1.5,0,0,0,1-.44,1.18,1.18,0,0,0,.27-1c-.06-.31-.37-.65-.9-1-.25-.18-.54-.37-.84-.6a3.69,3.69,0,0,1-.87-.89,2.91,2.91,0,0,1-.31-.64,2.27,2.27,0,0,1,.3-2,2.49,2.49,0,0,1,.93-.81,2.52,2.52,0,0,1,1.09-.26,3.51,3.51,0,0,1,1.71.43,4.94,4.94,0,0,1,1.09.78,6.28,6.28,0,0,1,.64.72c.31.42.43.69.35.77s-.35,0-.79-.29a9.15,9.15,0,0,0-1.76-.9,2.82,2.82,0,0,0-1.15-.13,1,1,0,0,0-.81.53.8.8,0,0,0-.11.44.49.49,0,0,0,.05.2,1.27,1.27,0,0,0,.12.23,6.06,6.06,0,0,0,1.34,1.06,5.49,5.49,0,0,1,.91.8,3.33,3.33,0,0,1,.38.57,2.19,2.19,0,0,1,.23.68,2.65,2.65,0,0,1-.78,2.42,2.84,2.84,0,0,1-2.08.74,4.14,4.14,0,0,1-1.67-.45,5.22,5.22,0,0,1-1.74-1.5C268.75,78.15,268.64,77.86,268.72,77.79Z" style="fill: rgb(235, 235, 235); transform-origin: 272.819px 76.0173px;" id="els9n24vk69jp" class="animable"></path><path d="M271,81.4c-.2-.11.79-2.45,2.23-5.23s2.76-5,3-4.85-.79,2.45-2.22,5.23S271.17,81.5,271,81.4Z" style="fill: rgb(235, 235, 235); transform-origin: 273.62px 76.3581px;" id="elh971cxd52te" class="animable"></path><path d="M270,80.56c-.2-.1.69-2.24,2-4.76s2.52-4.49,2.73-4.38-.69,2.24-2,4.76S270.17,80.67,270,80.56Z" style="fill: rgb(235, 235, 235); transform-origin: 272.366px 75.99px;" id="el209lze1stt7" class="animable"></path><g id="el6c6umep80oj"><g style="opacity: 0.5; transform-origin: 273.39px 73.9109px;" class="animable"><path d="M253.32,71.6l6.34-12.68h.14c6.78-.28,14.21,6.76,19.13,11.41.84.81,1.64,1.56,2.35,2.2,4.71,4.23,11.34,2.74,11.76,2.34l.42.26-6.61,13.78h-.16A29,29,0,0,1,265.5,79c-3.55-4.25-11.83-7.23-11.91-7.26ZM260,59.41l-6,11.91c1.47.56,8.54,3.35,11.86,7.32a28.52,28.52,0,0,0,20.66,9.78l6.17-12.88a10.54,10.54,0,0,1-1.36.28c-1.46.19-6.53.56-10.41-2.92-.7-.64-1.51-1.4-2.36-2.21C273.77,66.13,266.5,59.24,260,59.41Z" style="fill: rgb(250, 250, 250); transform-origin: 273.39px 73.9109px;" id="el3x1stjzv5i7" class="animable"></path></g></g><path d="M169.31,141.19s-9.44-.65-13.82-11.16c-2.72-6.5-9.74-18.3-15-17l-11.73,10.24A42.51,42.51,0,0,1,139,138.52c3.21,8.81,15.85,16.22,15.85,16.22Z" style="fill: rgb(245, 245, 245); transform-origin: 149.035px 133.835px;" id="elcufu1p0hxf" class="animable"></path><path d="M141,137.53A7.43,7.43,0,0,1,145,127c3.69-1.2,8.2,2.5,9.41,6.19a7,7,0,0,1-4.5,8.85C146.21,143.24,142.87,141,141,137.53Z" style="fill: rgb(235, 235, 235); transform-origin: 147.431px 134.568px;" id="elm4pexvmjrz" class="animable"></path><path d="M142.72,135.09c.11,0,.31.18.6.58a8.74,8.74,0,0,0,1.29,1.5,3.25,3.25,0,0,0,1,.6,1.56,1.56,0,0,0,1.09,0,1.17,1.17,0,0,0,.64-.83,1.92,1.92,0,0,0-.43-1.28c-.17-.27-.37-.55-.55-.88a3.8,3.8,0,0,1-.46-1.16,2.34,2.34,0,0,1,0-.7,1.94,1.94,0,0,1,.17-.71,2.3,2.3,0,0,1,.87-1,2.41,2.41,0,0,1,1.17-.4,2.71,2.71,0,0,1,1.1.18,3.54,3.54,0,0,1,1.42,1.05,4.39,4.39,0,0,1,.7,1.14,5,5,0,0,1,.32.91c.13.51.14.81,0,.85s-.32-.16-.62-.57a9,9,0,0,0-1.28-1.51,2.87,2.87,0,0,0-1-.56,1,1,0,0,0-1,.17.84.84,0,0,0-.27.37.49.49,0,0,0,0,.21,1.3,1.3,0,0,0,0,.26,6,6,0,0,0,.83,1.49,5,5,0,0,1,.53,1.09,2.84,2.84,0,0,1,.13.67,2.47,2.47,0,0,1,0,.72,2.68,2.68,0,0,1-1.66,1.93,2.81,2.81,0,0,1-2.19-.12,4,4,0,0,1-1.38-1.05,5.38,5.38,0,0,1-1-2.05C142.61,135.43,142.62,135.13,142.72,135.09Z" style="fill: rgb(245, 245, 245); transform-origin: 147.197px 135.092px;" id="eljrm7g5p9zf" class="animable"></path><path d="M143.4,139.29c-.15-.18,1.67-2,4.06-4s4.46-3.52,4.6-3.34-1.67,2-4.06,4S143.55,139.46,143.4,139.29Z" style="fill: rgb(245, 245, 245); transform-origin: 147.729px 135.619px;" id="elw6sy8y3x9u" class="animable"></path><path d="M142.8,138.13c-.15-.17,1.49-1.8,3.66-3.64s4.06-3.17,4.2-3-1.49,1.81-3.66,3.64S143,138.31,142.8,138.13Z" style="fill: rgb(245, 245, 245); transform-origin: 146.729px 134.811px;" id="elmj8md99cc7g" class="animable"></path><g id="el4pzxdbirwuk"><g style="opacity: 0.5; transform-origin: 148.75px 133.235px;" class="animable"><path d="M130.88,123.47l10.71-9.28.14,0c6.37,2.35,10.52,11.7,13.27,17.89.48,1.06.93,2.07,1.33,2.92,2.73,5.73,9.42,6.89,10,6.68l.29.4-11.39,10.2-.15-.07a29.05,29.05,0,0,1-15.75-17.33c-1.64-5.29-8.14-11.22-8.21-11.28Zm10.81-8.71-10.07,8.72c1.16,1.07,6.61,6.36,8.15,11.3a28.51,28.51,0,0,0,15.32,17l10.64-9.52a9.91,9.91,0,0,1-1.36-.27c-1.42-.38-6.25-2-8.49-6.69-.41-.86-.85-1.87-1.33-2.94C151.86,126.26,147.79,117.12,141.69,114.76Z" style="fill: rgb(235, 235, 235); transform-origin: 148.75px 133.235px;" id="elncziiw99gxc" class="animable"></path></g></g><path d="M101.41,229.67a12,12,0,0,1-9.61,7.64c-4.79.85-13.81,3.81-13.7,7.54l5.14,9.45a29.51,29.51,0,0,1,11.81-4.62c6.42-.83,13.32-8.24,13.32-8.24Z" style="fill: rgb(245, 245, 245); transform-origin: 93.2345px 241.985px;" id="elajnl42snzla" class="animable"></path><path d="M94.69,248.18a5.15,5.15,0,0,1-6.52-4.25c-.26-2.67,2.92-5.16,5.59-5.41a4.86,4.86,0,0,1,5.3,4.37C99.31,245.56,97.27,247.46,94.69,248.18Z" style="fill: rgb(235, 235, 235); transform-origin: 93.6179px 243.438px;" id="ellg788lgljdg" class="animable"></path><path d="M93.29,246.68c0-.08.17-.18.49-.32a6.26,6.26,0,0,0,1.2-.64,2.18,2.18,0,0,0,.56-.61,1,1,0,0,0,.15-.74.82.82,0,0,0-.46-.56,1.35,1.35,0,0,0-.93.1c-.21.08-.43.17-.68.24a2.48,2.48,0,0,1-.85.14,2,2,0,0,1-.48-.08,1.57,1.57,0,0,1-.45-.22,1.72,1.72,0,0,1-.56-.74,1.82,1.82,0,0,1-.09-.86,1.75,1.75,0,0,1,.29-.71,2.36,2.36,0,0,1,.92-.8,3,3,0,0,1,.88-.3,4.74,4.74,0,0,1,.65-.08c.37,0,.57,0,.58.11s-.16.19-.47.33a6.28,6.28,0,0,0-1.21.64,1.69,1.69,0,0,0-.53.6.68.68,0,0,0,0,.66.54.54,0,0,0,.2.24l.14.06.18,0a4.16,4.16,0,0,0,1.13-.34,3.7,3.7,0,0,1,.81-.19,1.94,1.94,0,0,1,.48,0,1.28,1.28,0,0,1,.47.14,1.85,1.85,0,0,1,1.06,1.4,2,2,0,0,1-.41,1.47,2.67,2.67,0,0,1-.92.76,3.55,3.55,0,0,1-1.54.39C93.51,246.81,93.31,246.76,93.29,246.68Z" style="fill: rgb(245, 245, 245); transform-origin: 93.9788px 243.642px;" id="elydlint7x84p" class="animable"></path><path d="M96.22,246.85a26.51,26.51,0,0,1-3.63-6.94,13.78,13.78,0,0,1,2.08,3.34A13,13,0,0,1,96.22,246.85Z" style="fill: rgb(245, 245, 245); transform-origin: 94.405px 243.38px;" id="elzmh7jqp36n" class="animable"></path><path d="M95.36,247.08c-.15.08-1-1.27-1.91-3a11.13,11.13,0,0,1-1.39-3.29,11.13,11.13,0,0,1,1.9,3A11.46,11.46,0,0,1,95.36,247.08Z" style="fill: rgb(245, 245, 245); transform-origin: 93.71px 243.937px;" id="elmldl2hqketh" class="animable"></path><g id="eltbqz4nk0eaf"><g style="opacity: 0.5; transform-origin: 92.855px 242.285px;" class="animable"><path d="M83.67,252.92,79,244.3l0-.09c2.54-3.94,9.47-5.34,14.06-6.26.79-.16,1.54-.31,2.18-.46a8.59,8.59,0,0,0,6-5.71l.31-.13,5.16,9.22-.06.08a20.06,20.06,0,0,1-14.06,8c-3.81.31-8.79,3.8-8.84,3.84Zm-4.24-8.6,4.36,8.1c.9-.62,5.29-3.5,8.85-3.79a19.72,19.72,0,0,0,13.75-7.79l-4.82-8.61a5.87,5.87,0,0,1-.39.88,9.2,9.2,0,0,1-5.79,4.72c-.64.15-1.39.3-2.18.46C88.71,239.19,81.93,240.56,79.43,244.32Z" style="fill: rgb(235, 235, 235); transform-origin: 92.855px 242.285px;" id="el0na64gjy4gy" class="animable"></path></g></g><path d="M467.54,143.62a12,12,0,0,1-12.26.59c-4.39-2.11-13.44-5-15.52-1.89L438.4,153a29.28,29.28,0,0,1,12.29,3.15c5.7,3.07,15.63,1.09,15.63,1.09Z" style="fill: rgb(245, 245, 245); transform-origin: 452.97px 149.412px;" id="elb58stxz5gu" class="animable"></path><path d="M451.27,154.72a5.14,5.14,0,0,1-2.8-7.26c1.35-2.31,5.38-2.48,7.69-1.13a4.85,4.85,0,0,1,1.75,6.64C456.56,155.29,453.79,155.65,451.27,154.72Z" style="fill: rgb(235, 235, 235); transform-origin: 453.218px 150.337px;" id="elymvgnm1y9j" class="animable"></path><path d="M451,152.68c0-.07.24,0,.58,0a5.73,5.73,0,0,0,1.35.18,2.3,2.3,0,0,0,.81-.17,1.09,1.09,0,0,0,.56-.51.83.83,0,0,0-.05-.72,1.35,1.35,0,0,0-.82-.46c-.21-.06-.44-.12-.69-.21a2.74,2.74,0,0,1-.77-.38,2.19,2.19,0,0,1-.34-.34,1.6,1.6,0,0,1-.23-.45,1.64,1.64,0,0,1,0-.93,1.67,1.67,0,0,1,.43-.74,1.58,1.58,0,0,1,.65-.41,2.49,2.49,0,0,1,1.21-.12,3.48,3.48,0,0,1,.89.27,5.58,5.58,0,0,1,.58.32c.3.21.44.36.41.43s-.24.06-.58,0a6.53,6.53,0,0,0-1.36-.19,1.9,1.9,0,0,0-.78.18.69.69,0,0,0-.41.52.53.53,0,0,0,0,.31.35.35,0,0,0,.08.13.51.51,0,0,0,.13.12,4,4,0,0,0,1.11.39,3.14,3.14,0,0,1,.78.32,2.47,2.47,0,0,1,.38.28,2.25,2.25,0,0,1,.3.39,1.84,1.84,0,0,1,0,1.76,2,2,0,0,1-1.18,1,3,3,0,0,1-1.2.09,3.69,3.69,0,0,1-1.47-.59C451.12,152.91,451,152.75,451,152.68Z" style="fill: rgb(245, 245, 245); transform-origin: 453.287px 150.578px;" id="elqa2p4we9q28" class="animable"></path><path d="M453.3,154.54a13.33,13.33,0,0,1,.27-3.92,13.3,13.3,0,0,1,.84-3.84,14.2,14.2,0,0,1-.27,3.92A13.3,13.3,0,0,1,453.3,154.54Z" style="fill: rgb(245, 245, 245); transform-origin: 453.852px 150.66px;" id="elm2aisvtiqia" class="animable"></path><path d="M452.46,154.22a11.1,11.1,0,0,1,.22-3.56,10.84,10.84,0,0,1,.79-3.48,11.45,11.45,0,0,1-.22,3.56A11.26,11.26,0,0,1,452.46,154.22Z" style="fill: rgb(245, 245, 245); transform-origin: 452.963px 150.7px;" id="elv99mmnn498" class="animable"></path><g id="eljxlp3o9b29e"><g style="opacity: 0.5; transform-origin: 453.05px 149.37px;" class="animable"><path d="M439.56,152.13l1.27-9.71.1,0c4.36-1.72,10.8,1.2,15.07,3.13.73.33,1.42.65,2,.9a8.6,8.6,0,0,0,8.21-1.13l.33.07-1.2,10.5-.1,0a20.05,20.05,0,0,1-16.09-1.71c-3.28-2-9.36-2.05-9.42-2.05Zm1.59-9.46-1.2,9.12c1.09,0,6.34.25,9.4,2.09a19.68,19.68,0,0,0,15.71,1.72l1.11-9.81a6,6,0,0,1-.82.49,9.22,9.22,0,0,1-7.46.45l-2-.91C451.68,143.93,445.38,141.08,441.15,142.67Z" style="fill: rgb(235, 235, 235); transform-origin: 453.05px 149.37px;" id="elxu185urttvf" class="animable"></path></g></g></g><g id="freepik--Floor--inject-93" class="animable" style="transform-origin: 250px 459.825px;"><path d="M476.43,459.82c0,.15-101.38.27-226.42.27S23.57,460,23.57,459.82s101.36-.26,226.44-.26S476.43,459.68,476.43,459.82Z" style="fill: rgb(38, 50, 56); transform-origin: 250px 459.825px;" id="elaa06acfkx2q" class="animable"></path></g><g id="freepik--Character--inject-93" class="animable" style="transform-origin: 243.882px 330.83px;"><path d="M227.19,240.35a55.25,55.25,0,0,1-3.57-10.24,18.48,18.48,0,0,1,.63-10.7,11.2,11.2,0,0,1,7.83-6.89c2.19-.43,4.54-.07,6.64-.84,2.43-.9,4.05-3.13,5.94-4.9a18.92,18.92,0,0,1,10.85-4.94,11.22,11.22,0,0,1,6.22.9,6.31,6.31,0,0,1,3.57,4.93,30,30,0,0,1,7.6-1.83,10.07,10.07,0,0,1,7.32,2.17,6.14,6.14,0,0,1,1.69,7.08,5,5,0,0,1,6.44,1.82,6.45,6.45,0,0,1-.41,7,12,12,0,0,1-7.19,4.13c-2.44.34-5.28.57-7.61-.21" style="fill: rgb(38, 50, 56); transform-origin: 256.15px 221.04px;" id="elqkn6k318m2k" class="animable"></path><path d="M233.16,310.8l35-2.8c.22-4.09-.07-19.9-.07-19.9s14.56-2.27,14.74-16.83-2.34-48-2.34-48h0a50.61,50.61,0,0,0-50.86,6.39l-2.16,1.66Z" style="fill: rgb(183, 136, 118); transform-origin: 255.155px 264.977px;" id="eld0ce4h7q24k" class="animable"></path><path d="M268.12,287.89a33.86,33.86,0,0,1-19-5.4s4.49,10.48,19,9.17Z" style="fill: rgb(170, 101, 80); transform-origin: 258.62px 287.132px;" id="el018nl6jwafvek" class="animable"></path><path d="M229.27,246.41c-.24-.11-10-3-9.68,7s10.24,7.59,10.25,7.3S229.27,246.41,229.27,246.41Z" style="fill: rgb(183, 136, 118); transform-origin: 224.711px 253.555px;" id="ellvt6x5ry9o" class="animable"></path><path d="M226.68,257s-.17.12-.46.27a1.72,1.72,0,0,1-1.29.06c-1.07-.35-2-2-2.11-3.78a5.75,5.75,0,0,1,.4-2.5,2,2,0,0,1,1.27-1.37.89.89,0,0,1,1,.44c.14.27.08.47.13.49s.21-.18.12-.58a1.14,1.14,0,0,0-.41-.62,1.36,1.36,0,0,0-1-.22,2.45,2.45,0,0,0-1.76,1.6,5.8,5.8,0,0,0-.51,2.8c.12,2,1.21,3.85,2.66,4.22a1.84,1.84,0,0,0,1.58-.32C226.67,257.27,226.72,257,226.68,257Z" style="fill: rgb(170, 101, 80); transform-origin: 224.369px 253.52px;" id="elkk7h6udyg89" class="animable"></path><path d="M275.72,245.84a2.08,2.08,0,0,1-2,2.09,2,2,0,0,1-2.15-1.87,2.08,2.08,0,0,1,2-2.1A2,2,0,0,1,275.72,245.84Z" style="fill: rgb(38, 50, 56); transform-origin: 273.645px 245.945px;" id="el9phn4arpwb4" class="animable"></path><path d="M277.74,243.75c-.26.28-1.83-.89-4.07-.88s-3.88,1.12-4.12.85.14-.61.86-1.14a5.72,5.72,0,0,1,3.3-1,5.56,5.56,0,0,1,3.24,1C277.63,243.14,277.87,243.63,277.74,243.75Z" style="fill: rgb(38, 50, 56); transform-origin: 273.626px 242.686px;" id="elbrle2zvouud" class="animable"></path><path d="M253.72,245.84a2.08,2.08,0,0,1-2,2.09,2,2,0,0,1-2.15-1.87,2.08,2.08,0,0,1,2-2.1A2,2,0,0,1,253.72,245.84Z" style="fill: rgb(38, 50, 56); transform-origin: 251.645px 245.945px;" id="el1jw9xfobif4h" class="animable"></path><path d="M255.74,244.17c-.26.27-1.83-.89-4.07-.89s-3.88,1.13-4.12.85c-.12-.12.14-.61.86-1.13a5.65,5.65,0,0,1,3.3-1,5.49,5.49,0,0,1,3.24,1C255.63,243.56,255.87,244.05,255.74,244.17Z" style="fill: rgb(38, 50, 56); transform-origin: 251.648px 243.105px;" id="elrbk4f0khpkd" class="animable"></path><path d="M263.86,260.77a14.62,14.62,0,0,1,3.64-.66c.57-.06,1.11-.17,1.21-.56a3,3,0,0,0-.38-1.69l-1.69-4.36c-2.35-6.19-4.05-11.29-3.8-11.38s2.36,4.86,4.7,11q.85,2.29,1.62,4.38a3.29,3.29,0,0,1,.3,2.24,1.44,1.44,0,0,1-.94.84,3.66,3.66,0,0,1-1,.13A14.18,14.18,0,0,1,263.86,260.77Z" style="fill: rgb(38, 50, 56); transform-origin: 266.177px 251.49px;" id="eljvawfjbbpx9" class="animable"></path><path d="M257.28,262.32c.36,0,.37,2.4,2.45,4.13s4.66,1.46,4.68,1.8c0,.15-.58.47-1.67.5a6.07,6.07,0,0,1-3.91-1.37,5.27,5.27,0,0,1-1.9-3.46C256.84,262.9,257.11,262.3,257.28,262.32Z" style="fill: rgb(38, 50, 56); transform-origin: 260.661px 265.535px;" id="elrnocpu5gp78" class="animable"></path><path d="M276.92,239.82c-.4.5-1.94,0-3.79,0s-3.43.34-3.79-.19c-.16-.26.09-.77.78-1.25a5.49,5.49,0,0,1,6.1.19C276.88,239,277.09,239.57,276.92,239.82Z" style="fill: rgb(38, 50, 56); transform-origin: 273.135px 238.794px;" id="el389xu6ir255" class="animable"></path><path d="M252.83,236.08c-.25.28-.82.16-1.57,0a13.85,13.85,0,0,0-5.54-.18c-.76.09-1.34.17-1.57-.12s0-.91.78-1.55a5.89,5.89,0,0,1,7.23.24C252.89,235.18,253.07,235.83,252.83,236.08Z" style="fill: rgb(38, 50, 56); transform-origin: 248.498px 234.677px;" id="elqb53jnpha6" class="animable"></path><path d="M281.22,227.74A34.17,34.17,0,0,1,260,226.66c-7.55-2.86-16.1-3.76-17.8-2.13s-1.34,9.07-8.24,11.95c0,0,1.92,14.07-3.76,14.13s-4.37-22.16-4.37-22.16l13.09-8.12L253.64,216l14.08-1.42,13.5,2.7Z" style="fill: rgb(38, 50, 56); transform-origin: 253.46px 232.595px;" id="el3jivjp6ym91" class="animable"></path><path d="M318.83,344.27s25.36,26.11,34.3,22.23C377.44,356,397.2,333.76,404,325.79c.29-1.5.58-3.26.83-5.36a16,16,0,0,0-.3-5.43,24.72,24.72,0,0,0-2.14-6.46c-1.11-1.79.49-3.94,2.24-3.21s6,5.46,6.89,12.12a2.73,2.73,0,0,0,3.78,1.73c4.4-1.45,19.35-7.25,22-7.87,2.37-.55,5.2-.41,3.62,1.32s-12.6,8.18-12.6,8.18,14.28-8.74,15.46-6.6c.81,1.48-2.2,4.88-12.22,9.72,0,0,11.82-7.11,13.84-6.88,4.54.53-9.6,9.23-9.6,9.23,10-6,9.49-6.41,10.57-5.24.81.87-.94,2.86-5.85,6.86-4,3.25-7.46,7.41-13.26,12.68h0s-60,83.45-97.75,57.84c-20.35-13.81-25.94-20.77-37.49-31.23" style="fill: rgb(183, 136, 118); transform-origin: 369.29px 354.244px;" id="elsa6ezezyubk" class="animable"></path><path d="M429.88,330c.15.25,3.28-1.46,7-3.83s6.6-4.49,6.43-4.73-3.3,1.48-7,3.84S429.74,329.78,429.88,330Z" style="fill: rgb(170, 101, 80); transform-origin: 436.596px 325.721px;" id="eloerkm5fnkvo" class="animable"></path><path d="M427.17,326.45c.14.25,3.59-1.39,7.69-3.67s7.31-4.33,7.17-4.59-3.58,1.39-7.69,3.67S427,326.19,427.17,326.45Z" style="fill: rgb(170, 101, 80); transform-origin: 434.599px 322.319px;" id="el6l8xnf1b7mp" class="animable"></path><path d="M424.38,322.71c.14.26,3.42-1.24,7.33-3.34s7-4,6.83-4.28-3.42,1.24-7.33,3.34S424.24,322.45,424.38,322.71Z" style="fill: rgb(170, 101, 80); transform-origin: 431.461px 318.898px;" id="elzv262r6o6e" class="animable"></path><path d="M168.69,365s-12.78,34.08-22.52,34.11c-26.5.08-53.49-12.35-62.91-16.93-.86-1.26-1.84-2.76-2.91-4.58a16.22,16.22,0,0,1-1.9-5.09,25.28,25.28,0,0,1-.62-6.78c.3-2.08-2-3.42-3.34-2s-3.32,7.41-1.46,13.87a2.73,2.73,0,0,1-2.77,3.1c-4.61.43-20.63,1.1-23.32,1.6-2.39.45-4.93,1.71-2.79,2.66,1.56.69,8.68,1.67,12.46,2.15-4.59-.52-14.28-1.41-14.44.44-.1,1.09,1.6,2.27,5.79,3.08-2.86-.19-5.44-.23-6.13.18-4,2.3,12.49,4.6,12.49,4.6-11.54-1.51-11.27-2.06-11.79-.56-.39,1.12,2,2.25,8.11,4,5,1.38,9.8,3.79,17.23,6.3,0,0,88.42,52.42,112.73,13.84,13.11-20.8,15.45-29.42,21.84-43.64Z" style="fill: rgb(183, 136, 118); transform-origin: 121.822px 398.151px;" id="elzvd0uubx66d" class="animable"></path><path d="M61.24,396.41c0,.29-3.59,0-8-.71s-7.84-1.46-7.78-1.75,3.62,0,8,.71S61.27,396.12,61.24,396.41Z" style="fill: rgb(170, 101, 80); transform-origin: 53.3497px 395.18px;" id="eljv6lbashjoa" class="animable"></path><path d="M62.29,392c0,.29-3.84.17-8.51-.27s-8.44-1-8.41-1.34,3.83-.16,8.51.28S62.31,391.75,62.29,392Z" style="fill: rgb(170, 101, 80); transform-origin: 53.83px 391.185px;" id="elm1qm7u8jbar" class="animable"></path><path d="M63.35,387.5c0,.29-3.63.24-8.06-.13s-8-.89-8-1.18,3.63-.23,8.06.13S63.37,387.21,63.35,387.5Z" style="fill: rgb(170, 101, 80); transform-origin: 55.32px 386.847px;" id="eles2dfhd7llg" class="animable"></path><path d="M348.75,366.58,306.92,319.9c-11.65-11.45-17.87-14.87-34.08-16.79-2.65-.31-4.76-.51-6.27-.7a61.92,61.92,0,0,1-37.33,0h0c-5.77.24-10.55,2-15.45,3-15.46,3-26.58,14.22-29.67,24.61h0l-34.87,68.11,29.45,24.75,26.9-42.7,1.64,45.45-1.67,34,103.25.3-4.69-79.73,27.79,22.62Z" style="fill: rgb(69, 52, 170); transform-origin: 249px 381.17px;" id="el7losm0od7sw" class="animable"></path><path d="M206.07,351.57a6.42,6.42,0,0,1,.13,1.52c0,1,.07,2.38.1,4.13,0,3.48.07,8.3,0,13.62s-.09,10.14-.17,13.62c0,1.75-.09,3.16-.13,4.13a6.11,6.11,0,0,1-.15,1.51,6,6,0,0,1-.14-1.51c0-1-.07-2.39-.1-4.13-.05-3.49-.07-8.3,0-13.63s.09-10.13.17-13.62c0-1.74.09-3.15.14-4.13A5.64,5.64,0,0,1,206.07,351.57Z" style="fill: rgb(38, 50, 56); transform-origin: 205.948px 370.835px;" id="elp57ykmwykyh" class="animable"></path><path d="M305.88,410a15.4,15.4,0,0,1-.3-2.34c-.15-1.64-.34-3.8-.58-6.4-.45-5.41-1-12.89-1.6-21.15S302.32,364.41,302,359c-.13-2.61-.25-4.78-.33-6.42a14.2,14.2,0,0,1,0-2.36,14.45,14.45,0,0,1,.31,2.34c.15,1.64.34,3.8.57,6.4.45,5.41,1,12.89,1.61,21.15s1.07,15.74,1.39,21.16c.14,2.61.25,4.78.34,6.42A14.77,14.77,0,0,1,305.88,410Z" style="fill: rgb(38, 50, 56); transform-origin: 303.776px 380.11px;" id="el7bjjrlby4g8" class="animable"></path><g id="elnqqrfsjvr4g"><g style="opacity: 0.3; transform-origin: 251.19px 335.61px;" class="animable"><path d="M321.19,335.61c0,.14-31.33.26-70,.26s-70-.12-70-.26,31.33-.26,70-.26S321.19,335.46,321.19,335.61Z" style="fill: rgb(235, 235, 235); transform-origin: 251.19px 335.61px;" id="elevv4vow2upe" class="animable"></path></g></g><g id="elcvzqjvkwh9o"><g style="opacity: 0.3; transform-origin: 246.735px 377.09px;" class="animable"><path d="M332,377.09c0,.15-38.18.26-85.26.26s-85.27-.11-85.27-.26,38.17-.26,85.27-.26S332,377,332,377.09Z" style="fill: rgb(235, 235, 235); transform-origin: 246.735px 377.09px;" id="eldr7cpwhazur" class="animable"></path></g></g><g id="elw5pgfdzzr"><g style="opacity: 0.3; transform-origin: 257.2px 424.39px;" class="animable"><path d="M306.72,424.39c0,.15-22.17.26-49.52.26s-49.52-.11-49.52-.26,22.17-.26,49.52-.26S306.72,424.25,306.72,424.39Z" style="fill: rgb(235, 235, 235); transform-origin: 257.2px 424.39px;" id="elyyba7ladjd9" class="animable"></path></g></g><g id="elu1b2c2hx8o"><g style="opacity: 0.3; transform-origin: 218.75px 382.01px;" class="animable"><path d="M218.76,459.82c-.14,0-.26-34.84-.26-77.8s.12-77.82.26-77.82S219,339,219,382,218.91,459.82,218.76,459.82Z" style="fill: rgb(235, 235, 235); transform-origin: 218.75px 382.01px;" id="el8op3w3x476d" class="animable"></path></g></g><g id="elecxd48kiop5"><g style="opacity: 0.3; transform-origin: 278.115px 381.805px;" class="animable"><path d="M278.6,459.83s0-.14,0-.4,0-.69,0-1.19c0-1.06,0-2.59-.05-4.54,0-4-.08-9.69-.13-16.72-.13-14.15-.31-33.64-.5-55.17s-.33-41.06-.34-55.18c0-7,0-12.74,0-16.72,0-2,0-3.48.05-4.54,0-.5,0-.9,0-1.19a2.12,2.12,0,0,1,0-.4s0,.14,0,.4,0,.69,0,1.19c0,1.06,0,2.59.05,4.54,0,4,.08,9.68.13,16.72.13,14.14.31,33.64.5,55.18s.33,41,.34,55.16c0,7,0,12.75,0,16.73,0,1.95,0,3.48,0,4.54,0,.5,0,.89,0,1.19A2.12,2.12,0,0,1,278.6,459.83Z" style="fill: rgb(235, 235, 235); transform-origin: 278.115px 381.805px;" id="elm6u9fxtnlfq" class="animable"></path></g></g><g id="elbda06q2duem"><g style="opacity: 0.3; transform-origin: 320.93px 365.18px;" class="animable"><path d="M320.93,393.32c-.14,0-.26-12.6-.26-28.14s.12-28.14.26-28.14.26,12.59.26,28.14S321.08,393.32,320.93,393.32Z" style="fill: rgb(235, 235, 235); transform-origin: 320.93px 365.18px;" id="eliqou9q0qy6r" class="animable"></path></g></g><g id="elik3gucd32r"><g style="opacity: 0.3; transform-origin: 171.92px 378.305px;" class="animable"><path d="M171.92,404.85c-.15,0-.26-11.88-.26-26.54s.11-26.55.26-26.55.26,11.88.26,26.55S172.06,404.85,171.92,404.85Z" style="fill: rgb(235, 235, 235); transform-origin: 171.92px 378.305px;" id="elxhprerx3uh" class="animable"></path></g></g><polyline points="225.38 303.78 231.08 291.8 249.75 304.96 268.17 292.58 274.65 303.1 256.19 315.1 243.85 315.1 225.38 305.17" style="fill: rgb(69, 52, 170); transform-origin: 250.015px 303.45px;" id="elsar02bvyqk" class="animable"></polyline><path d="M249.75,305a1.39,1.39,0,0,1-.35.1,3.72,3.72,0,0,0-1,.27,5.87,5.87,0,0,0-2.78,2.35,29.83,29.83,0,0,0-2.57,5c-.44,1-.88,2-1.44,3.07a11.48,11.48,0,0,1-2.15,3l-.18.17-.18-.19-1.06-1.1c-3.7-3.88-6.85-7.57-9-10.31-1.1-1.37-2-2.49-2.54-3.28a7.63,7.63,0,0,1-.86-1.26,7.69,7.69,0,0,1,1,1.13l2.66,3.18c2.26,2.67,5.45,6.32,9.13,10.18l1.06,1.1h-.36a10.66,10.66,0,0,0,2.06-2.87c.55-1,1-2.05,1.45-3a28.48,28.48,0,0,1,2.71-5,5.88,5.88,0,0,1,3-2.33,3.35,3.35,0,0,1,1-.18C249.62,304.94,249.75,304.94,249.75,305Z" style="fill: rgb(38, 50, 56); transform-origin: 237.695px 310.89px;" id="elel96139mim9" class="animable"></path><path d="M274.32,303.33a7,7,0,0,1-.91,1.2c-.63.75-1.55,1.81-2.75,3.06a74.31,74.31,0,0,1-10.29,8.84c-.81.57-1.62,1.12-2.4,1.63l-.36.23,0-.44a23.5,23.5,0,0,0-1.52-6.14,15.74,15.74,0,0,0-2.47-4.42,6.13,6.13,0,0,0-2.65-2c-.74-.25-1.19-.28-1.18-.33s.11,0,.32,0a3.56,3.56,0,0,1,.92.15,6.12,6.12,0,0,1,2.85,1.95,15.55,15.55,0,0,1,2.64,4.48,23.72,23.72,0,0,1,1.61,6.29l-.4-.2c.77-.52,1.57-1.06,2.38-1.63a83.05,83.05,0,0,0,10.32-8.67c1.24-1.21,2.2-2.23,2.87-2.93A8.82,8.82,0,0,1,274.32,303.33Z" style="fill: rgb(38, 50, 56); transform-origin: 262.055px 310.81px;" id="elubml5oairbp" class="animable"></path><path d="M256.85,459.83s0-.14,0-.4,0-.67,0-1.17c0-1.05,0-2.56-.06-4.49,0-3.93-.11-9.57-.2-16.53-.2-13.95-.65-33.22-1.62-54.49s-2.31-40.5-3.38-54.41c-.56-6.94-1-12.56-1.32-16.48-.15-1.92-.27-3.42-.36-4.47,0-.5-.06-.88-.07-1.17a1.74,1.74,0,0,1,0-.4s0,.13.06.39.07.68.13,1.17c.11,1.05.26,2.55.45,4.47.39,3.88.9,9.5,1.49,16.46,1.17,13.9,2.55,33.14,3.53,54.42s1.36,40.55,1.47,54.51c.06,7,.06,12.63,0,16.53,0,1.93,0,3.44,0,4.49,0,.5,0,.88,0,1.17A2.12,2.12,0,0,1,256.85,459.83Z" style="fill: rgb(38, 50, 56); transform-origin: 253.422px 382.825px;" id="el9lfhps8qbjt" class="animable"></path><g id="el59flucw6pey"><g style="opacity: 0.2; transform-origin: 261.085px 314.245px;" class="animable"><path d="M249.31,305c2.27,1.29,3.11,4.16,3.12,6.76s-.61,5.2-.39,7.8a4.43,4.43,0,0,0,1.74,3.53c1.58,1,3.59.06,5.21-.83,3.48-1.91,7-3.86,9.85-6.64a14.22,14.22,0,0,0,4-10.65c-4.8,5.15-9.64,8.26-14.89,12.32a21.74,21.74,0,0,0-2.64-7.79c-1.36-2.36-3.29-4.8-6-4.5" id="ely899c83lxls" class="animable" style="transform-origin: 261.085px 314.245px;"></path></g></g><g id="el89jviwtztq4"><g style="opacity: 0.2; transform-origin: 239.335px 314.062px;" class="animable"><path d="M232.16,310.92c1.77,3.47,3.63,7,6.68,9.47,1.35,1.07,3.33,1.88,4.74.88,1.13-.81,1.32-2.38,1.41-3.77.24-3.52,1.28-7.57,1.52-11.1-2.79,3.15-4.32,8.7-7.26,12.51-3-1.89-4.73-5.12-6.89-7.93" id="eluzp1gld078q" class="animable" style="transform-origin: 239.335px 314.062px;"></path></g></g><g id="el7uomyyz4ls4"><g style="opacity: 0.2; transform-origin: 320.105px 382.045px;" class="animable"><path d="M323,395l13.93-25.91c-4.12.41-6.89,4.3-9,7.86s-4.7,7.51-8.79,8.22c-2.84.49-5.68-.78-8.16-2.26s-4.88-3.23-7.7-3.85Z" id="elmfqy771v6es" class="animable" style="transform-origin: 320.105px 382.045px;"></path></g></g><g id="elidx26f5oae"><g style="opacity: 0.2; transform-origin: 181.59px 401.335px;" class="animable"><path d="M200.63,388s-9.7,10.21-16.24,11.71a23.79,23.79,0,0,1-19.12-4,3.58,3.58,0,0,0-1.45-.77,1.09,1.09,0,0,0-1.27.78,1.58,1.58,0,0,0,.68,1.23q10,9.31,20.84,17.72Z" id="elc6fcx419cs7" class="animable" style="transform-origin: 181.59px 401.335px;"></path></g></g><g id="elru5domr5xxq"><g style="opacity: 0.2; transform-origin: 251.855px 377.093px;" class="animable"><path d="M246.31,318.4q-5.52,44.09-7.21,88.54c-.17,4.63-.29,9.4,1.36,13.73,1.92,5,6,8.9,10,12.56,1.69,1.56,4,3.24,6.06,2.27a5.65,5.65,0,0,0,1.95-1.82c2.5-3.22,4.84-6.7,5.77-10.68,2.9-12.46-8.86-24.79-6.21-37.31" id="elx3h0i47zvdp" class="animable" style="transform-origin: 251.855px 377.093px;"></path></g></g><path d="M245.36,308.17l8.83-.23,2.36,4.75-2.83,7.94h-7.21l-3.82-7.11Z" style="fill: rgb(69, 90, 100); transform-origin: 249.62px 314.285px;" id="elw2128km1sgm" class="animable"></path><polygon points="246.51 320.63 242.38 421.69 254.38 434.74 265.47 418.98 253.72 320.63 246.51 320.63" style="fill: rgb(69, 90, 100); transform-origin: 253.925px 377.685px;" id="elatxr8jodl4l" class="animable"></polygon><path d="M253.3,320.77a17.33,17.33,0,0,1-3.34,0,17.17,17.17,0,0,1-3.33-.11,12.19,12.19,0,0,1,6.67.11Z" style="fill: rgb(38, 50, 56); transform-origin: 249.965px 320.549px;" id="elgvd8ry9xhfm" class="animable"></path><path d="M255.2,309.65a6,6,0,0,1-1.12,1.53,24.69,24.69,0,0,1-3.32,3.14,25.09,25.09,0,0,1-3.81,2.5,5.67,5.67,0,0,1-1.75.74c-.07-.14,2.49-1.46,5.24-3.65S255.08,309.54,255.2,309.65Z" style="fill: rgb(38, 50, 56); transform-origin: 250.199px 313.603px;" id="elaaf4y08lmle" class="animable"></path><path d="M254.81,330.5a39.11,39.11,0,0,1-4.31,4.64,38.23,38.23,0,0,1-4.69,4.27,38.73,38.73,0,0,1,4.32-4.64A37.76,37.76,0,0,1,254.81,330.5Z" style="fill: rgb(38, 50, 56); transform-origin: 250.31px 334.955px;" id="el5g3bahbnmtj" class="animable"></path><path d="M255.42,337.78a47.44,47.44,0,0,1-4.83,5.14,47,47,0,0,1-5.19,4.78,48,48,0,0,1,4.83-5.15A47.46,47.46,0,0,1,255.42,337.78Z" style="fill: rgb(235, 235, 235); transform-origin: 250.41px 342.74px;" id="elxh4ztjd37j" class="animable"></path><path d="M256.56,344.5a64.3,64.3,0,0,1-5.62,5.94,65.38,65.38,0,0,1-6,5.58,63.61,63.61,0,0,1,5.62-5.95A62.7,62.7,0,0,1,256.56,344.5Z" style="fill: rgb(38, 50, 56); transform-origin: 250.75px 350.26px;" id="elznk2njto91i" class="animable"></path><path d="M257.35,351.58a79.14,79.14,0,0,1-6.13,6.46,78,78,0,0,1-6.49,6.08,75,75,0,0,1,6.12-6.45A76.34,76.34,0,0,1,257.35,351.58Z" style="fill: rgb(235, 235, 235); transform-origin: 251.04px 357.85px;" id="elwv8cyjowqrf" class="animable"></path><path d="M258.1,358.71a90.79,90.79,0,0,1-6.62,6.94,86.65,86.65,0,0,1-7,6.58,89.74,89.74,0,0,1,6.62-7A85.34,85.34,0,0,1,258.1,358.71Z" style="fill: rgb(38, 50, 56); transform-origin: 251.29px 365.47px;" id="el2ll176t3bgd" class="animable"></path><path d="M259,365.68c.11.1-3.16,3.51-7.28,7.62s-7.56,7.35-7.66,7.25a103.16,103.16,0,0,1,7.29-7.62C255.47,368.82,258.89,365.58,259,365.68Z" style="fill: rgb(235, 235, 235); transform-origin: 251.531px 373.115px;" id="el5b8pptr8jhw" class="animable"></path><path d="M259.75,372.8c.1.1-3.41,3.75-7.83,8.16s-8.09,7.88-8.19,7.78,3.4-3.75,7.82-8.15S259.64,372.7,259.75,372.8Z" style="fill: rgb(38, 50, 56); transform-origin: 251.74px 380.77px;" id="elrtojdj31eli" class="animable"></path><path d="M260.63,379.8c.1.1-3.65,4-8.37,8.69s-8.63,8.42-8.73,8.32,3.64-4,8.37-8.69S260.52,379.7,260.63,379.8Z" style="fill: rgb(235, 235, 235); transform-origin: 252.08px 388.305px;" id="elnox06tag02p" class="animable"></path><path d="M261.18,387.12c.1.1-3.88,4.23-8.89,9.21s-9.15,8.95-9.26,8.85,3.88-4.23,8.89-9.21S261.08,387,261.18,387.12Z" style="fill: rgb(38, 50, 56); transform-origin: 252.105px 396.15px;" id="eltwmrosq9y5" class="animable"></path><path d="M262.15,394c.1.1-4.1,4.45-9.38,9.71s-9.66,9.45-9.76,9.35,4.1-4.45,9.39-9.72S262.05,393.92,262.15,394Z" style="fill: rgb(235, 235, 235); transform-origin: 252.58px 403.53px;" id="elzzbxxbj5km" class="animable"></path><path d="M263.68,400.36c.1.11-4.6,4.95-10.49,10.82s-10.76,10.56-10.86,10.46,4.59-4.95,10.49-10.83S263.58,400.26,263.68,400.36Z" style="fill: rgb(38, 50, 56); transform-origin: 253.005px 411px;" id="eljqfisd7ldg" class="animable"></path><path d="M246.14,425.78c-.1-.1,3.87-4.26,8.88-9.29s9.14-9,9.25-8.92-3.88,4.26-8.88,9.29S246.24,425.88,246.14,425.78Z" style="fill: rgb(235, 235, 235); transform-origin: 255.205px 416.675px;" id="elai9x6if1o5" class="animable"></path><path d="M250.73,430.38c-.1-.1,3-3.54,7-7.69a101.27,101.27,0,0,1,7.34-7.33,103.26,103.26,0,0,1-7,7.69A101.27,101.27,0,0,1,250.73,430.38Z" style="fill: rgb(38, 50, 56); transform-origin: 257.899px 422.87px;" id="ely4skeimowz" class="animable"></path><path d="M253.92,323.73a31,31,0,0,1-3.82,4.15,30.49,30.49,0,0,1-4.19,3.79,31.45,31.45,0,0,1,3.82-4.16A30.65,30.65,0,0,1,253.92,323.73Z" style="fill: rgb(235, 235, 235); transform-origin: 249.915px 327.7px;" id="eln0fwktqwxdo" class="animable"></path><path d="M150.12,397.91c-1.46-.13-2-2.11-1.54-3.5s1.57-2.51,2-3.91c.27-.79.39-1.74,1.08-2.22a2.17,2.17,0,0,1,2.5.11c4.07,3.48,7.07,6.87,11.51,10.64,4.28,3.62,8.89,8.27,13.41,11.6,2.54,1.88,5.65,3.82,6,7A5.07,5.07,0,0,1,180.6,423c-2.58.18-4.81-1.65-6.74-3.37q-12.08-10.78-24.17-21.55" style="fill: rgb(69, 52, 170); transform-origin: 166.756px 405.474px;" id="el1tci6ysjw7" class="animable"></path><path d="M183.46,414.25a9.06,9.06,0,0,1-1.24-.89c-.78-.6-1.93-1.42-3.37-2.44a49.05,49.05,0,0,1-4.85-3.84L168.41,402c-4-3.63-7.52-6.93-10.08-9.34l-3-2.88a7.51,7.51,0,0,1-1-1.1,8.65,8.65,0,0,1,1.19,1l3.13,2.75c2.62,2.34,6.21,5.6,10.17,9.22,2,1.82,3.84,3.54,5.55,5.12a53.75,53.75,0,0,0,4.76,3.9c1.41,1.06,2.53,1.94,3.28,2.58A7.6,7.6,0,0,1,183.46,414.25Z" style="fill: rgb(38, 50, 56); transform-origin: 168.895px 401.465px;" id="eli6xgyr6jcfk" class="animable"></path><path d="M180.8,416.58a7.8,7.8,0,0,1-1.3-.74c-.81-.5-2-1.26-3.39-2.22-2.84-1.92-6.69-4.69-10.77-8s-7.63-6.42-10.12-8.77c-1.25-1.17-2.25-2.14-2.91-2.83a7.57,7.57,0,0,1-1-1.1,9.92,9.92,0,0,1,1.15,1l3,2.7c2.56,2.28,6.13,5.37,10.2,8.64s7.88,6.07,10.66,8.06l3.29,2.35A8.89,8.89,0,0,1,180.8,416.58Z" style="fill: rgb(38, 50, 56); transform-origin: 166.055px 404.75px;" id="elaoio0lfwzut" class="animable"></path><g id="eln52wmggd1jb"><g style="opacity: 0.3; transform-origin: 159.625px 400.1px;" class="animable"><path d="M163,396.73a22.48,22.48,0,0,1-3.19,3.55,22.17,22.17,0,0,1-3.56,3.19,44.2,44.2,0,0,1,6.75-6.74Z" style="fill: rgb(235, 235, 235); transform-origin: 159.625px 400.1px;" id="elmnsjq8tc9im" class="animable"></path></g></g><g id="ely06stm7apvn"><g style="opacity: 0.3; transform-origin: 175.04px 414.265px;" class="animable"><path d="M178.67,410.77a24.62,24.62,0,0,1-3.45,3.68,25.27,25.27,0,0,1-3.81,3.31,24,24,0,0,1,3.45-3.68A24.72,24.72,0,0,1,178.67,410.77Z" style="fill: rgb(235, 235, 235); transform-origin: 175.04px 414.265px;" id="elkge95u10vy" class="animable"></path></g></g><g id="els0kmzok0ha"><g style="opacity: 0.5; transform-origin: 234.705px 303.07px;" class="animable"><path d="M238.33,297.45a43.46,43.46,0,0,1-3.41,5.76,42.59,42.59,0,0,1-3.84,5.48,45,45,0,0,1,3.41-5.76A41.45,41.45,0,0,1,238.33,297.45Z" style="fill: rgb(235, 235, 235); transform-origin: 234.705px 303.07px;" id="elsoettubflhb" class="animable"></path></g></g><g id="el3gr567grcmo"><g style="opacity: 0.5; transform-origin: 265.24px 303.04px;" class="animable"><path d="M268,309.06a43.9,43.9,0,0,1-3-5.91,41.92,41.92,0,0,1-2.53-6.13,83.3,83.3,0,0,1,5.54,12Z" style="fill: rgb(235, 235, 235); transform-origin: 265.24px 303.04px;" id="el5z3elrjl9rd" class="animable"></path></g></g><path d="M333.25,400.4a3.18,3.18,0,0,1-3.32,1.89c-1.46-.16-2.79-1-4.26-1.11-.83-.09-1.78,0-2.4-.57a2.65,2.65,0,0,1-.45-2.45c.93-5.53,3.93-10.48,7.15-15.07s6.75-9,9-14.17c1.26-2.9,2.46-6.36,5.45-7.4a5.07,5.07,0,0,1,6.25,3.2c.75,2.48-.54,5.06-1.79,7.32L333.25,400.4" style="fill: rgb(69, 52, 170); transform-origin: 336.794px 381.811px;" id="elc1fnuf5fmh" class="animable"></path><path d="M343.25,366.68a8.62,8.62,0,0,1-.47,1.41c-.33.89-.84,2.17-1.48,3.74-1.29,3.14-3.16,7.45-5.37,12.14s-4.37,8.87-6,11.86c-.8,1.49-1.47,2.69-1.95,3.51a8.2,8.2,0,0,1-.79,1.25,9,9,0,0,1,.61-1.34l1.81-3.6c1.53-3,3.62-7.22,5.83-11.9s4.14-9,5.51-12.07c.66-1.48,1.21-2.71,1.63-3.67A8.26,8.26,0,0,1,343.25,366.68Z" style="fill: rgb(38, 50, 56); transform-origin: 335.22px 383.635px;" id="elrkqmnutwja" class="animable"></path><path d="M341.57,361.14a8.55,8.55,0,0,1-.76,1.35l-2.17,3.58c-1.83,3-4.3,7.22-6.88,12s-4.76,9.1-6.31,12.27l-1.82,3.77a9.53,9.53,0,0,1-.72,1.36,8.17,8.17,0,0,1,.53-1.44c.38-.92.95-2.23,1.68-3.84,1.46-3.22,3.6-7.62,6.18-12.37s5.12-8.93,7-11.91c1-1.49,1.75-2.68,2.31-3.49A7.74,7.74,0,0,1,341.57,361.14Z" style="fill: rgb(38, 50, 56); transform-origin: 332.24px 378.305px;" id="elpesneu4ctzc" class="animable"></path><g id="elss063rbzco"><g style="opacity: 0.5; transform-origin: 331.58px 390.996px;" class="animable"><path d="M336.73,393.3a17,17,0,0,1-5.42-1.69,17.38,17.38,0,0,1-4.88-2.91c.08-.13,2.25,1.18,5.09,2.44S336.77,393.16,336.73,393.3Z" style="fill: rgb(235, 235, 235); transform-origin: 331.58px 390.996px;" id="eldobf950ipik" class="animable"></path></g></g><g id="elcigdfmu8hn"><g style="opacity: 0.5; transform-origin: 343.77px 369.5px;" class="animable"><path d="M349,372.64a45.17,45.17,0,0,1-5.3-3,46.32,46.32,0,0,1-5.16-3.28,30.14,30.14,0,0,1,5.43,2.84A29.7,29.7,0,0,1,349,372.64Z" style="fill: rgb(235, 235, 235); transform-origin: 343.77px 369.5px;" id="elczjo3scl56o" class="animable"></path></g></g></g><g id="freepik--Stars--inject-93" class="animable" style="transform-origin: 275.105px 170.255px;"><polygon points="364.7 55.02 362.7 58.67 359.06 60.66 362.7 62.66 364.7 66.3 366.69 62.66 370.34 60.66 366.69 58.67 364.7 55.02" style="fill: rgb(69, 90, 100); transform-origin: 364.7px 60.66px;" id="elshfn9nawjs9" class="animable"></polygon><polygon points="436.16 271.3 434.16 274.94 430.52 276.94 434.16 278.93 436.16 282.57 438.15 278.93 441.8 276.94 438.15 274.94 436.16 271.3" style="fill: rgb(69, 90, 100); transform-origin: 436.16px 276.935px;" id="elu7u6rvz9xzn" class="animable"></polygon><polygon points="114.05 66.36 112.05 70 108.41 72 112.05 73.99 114.05 77.63 116.04 73.99 119.69 72 116.04 70 114.05 66.36" style="fill: rgb(69, 90, 100); transform-origin: 114.05px 71.995px;" id="el1hrt0o1kcxm" class="animable"></polygon><polygon points="409.91 170.51 408.68 172.75 406.44 173.97 408.68 175.2 409.91 177.44 411.14 175.2 413.37 173.97 411.14 172.75 409.91 170.51" style="fill: rgb(69, 90, 100); transform-origin: 409.905px 173.975px;" id="elrbddn92kkd" class="animable"></polygon><polygon points="247.32 106.92 246.09 109.17 243.85 110.39 246.09 111.61 247.32 113.86 248.54 111.61 250.78 110.39 248.54 109.17 247.32 106.92" style="fill: rgb(69, 90, 100); transform-origin: 247.315px 110.39px;" id="elnc8ch54ksp" class="animable"></polygon><polygon points="177.49 164.61 176.39 166.6 174.41 167.69 176.39 168.78 177.49 170.77 178.58 168.78 180.56 167.69 178.58 166.6 177.49 164.61" style="fill: rgb(69, 90, 100); transform-origin: 177.485px 167.69px;" id="eladktwmsaa4c" class="animable"></polygon><polygon points="309.39 260.54 308.3 262.54 306.31 263.63 308.3 264.72 309.39 266.71 310.49 264.72 312.47 263.63 310.49 262.54 309.39 260.54" style="fill: rgb(69, 90, 100); transform-origin: 309.39px 263.625px;" id="elik237fwh138" class="animable"></polygon><polygon points="117.57 279.33 116.48 281.32 114.49 282.41 116.48 283.5 117.57 285.49 118.66 283.5 120.65 282.41 118.66 281.32 117.57 279.33" style="fill: rgb(69, 90, 100); transform-origin: 117.57px 282.41px;" id="ell4no5age28" class="animable"></polygon></g><g id="freepik--floating-money--inject-93" class="animable" style="transform-origin: 257.04px 184.705px;"><path d="M72.43,110.13s6-3.18,12.72,1.62c4.14,3,12.93,7.56,15.64,4.77l3.33-10.75a30.63,30.63,0,0,1-12.07-5.47c-5.31-4.2-15.89-4-15.89-4Z" style="fill: rgb(69, 52, 170); transform-origin: 88.275px 106.844px;" id="elf9eiru22mj" class="animable"></path><g id="el9l3bkw3p7xv"><g style="opacity: 0.4; transform-origin: 88.3727px 105.83px;" class="animable"><path d="M91.19,101.66a5.38,5.38,0,0,1,1.57,8c-1.81,2.14-6,1.58-8.13-.24a5.07,5.07,0,0,1-.59-7.15C85.85,100.11,88.77,100.25,91.19,101.66Z" style="fill: rgb(255, 255, 255); transform-origin: 88.3727px 105.83px;" id="elpl5legwmzrd" class="animable"></path></g></g><path d="M91.08,103.8c0,.07-.26,0-.59-.13a6.26,6.26,0,0,0-1.36-.43,2.27,2.27,0,0,0-.86,0,1.15,1.15,0,0,0-.67.42.87.87,0,0,0-.08.75c.08.22.34.42.76.63.2.1.43.2.67.33a2.51,2.51,0,0,1,.72.54,2,2,0,0,1,.29.41,1.54,1.54,0,0,1,.16.5,1.62,1.62,0,0,1-.14,1,1.75,1.75,0,0,1-.57.69,1.85,1.85,0,0,1-.75.31,2.6,2.6,0,0,1-1.27-.11,3.28,3.28,0,0,1-.86-.44,4.05,4.05,0,0,1-.54-.43c-.27-.27-.39-.45-.34-.52s.25,0,.59.12a6,6,0,0,0,1.36.44,2,2,0,0,0,.84,0,.76.76,0,0,0,.52-.46.54.54,0,0,0,0-.33.58.58,0,0,0,0-.14.79.79,0,0,0-.12-.15,4.44,4.44,0,0,0-1.07-.6,3.38,3.38,0,0,1-.74-.47,2.9,2.9,0,0,1-.34-.36,1.68,1.68,0,0,1-.24-.46A1.91,1.91,0,0,1,86.7,103a2.06,2.06,0,0,1,1.4-.76,2.9,2.9,0,0,1,1.24.13,3.72,3.72,0,0,1,1.41.87C91,103.55,91.13,103.74,91.08,103.8Z" style="fill: rgb(69, 52, 170); transform-origin: 88.3648px 105.538px;" id="el3zmdbk15gfo" class="animable"></path><path d="M89.07,101.48a13.83,13.83,0,0,1-1,4,14,14,0,0,1-1.56,3.8,14.75,14.75,0,0,1,1-4A14.41,14.41,0,0,1,89.07,101.48Z" style="fill: rgb(69, 52, 170); transform-origin: 87.79px 105.38px;" id="el1zjn401n186" class="animable"></path><path d="M89.88,102a11.63,11.63,0,0,1-.87,3.63c-.64,2-1.29,3.49-1.45,3.43a12.16,12.16,0,0,1,.88-3.62A11.81,11.81,0,0,1,89.88,102Z" style="fill: rgb(69, 52, 170); transform-origin: 88.72px 105.531px;" id="el9kc1e2nt67n" class="animable"></path><g id="ela65a0bfp9e"><g style="opacity: 0.5; transform-origin: 88.26px 107.027px;" class="animable"><path d="M102.77,106.46l-3.07,9.76-.1,0c-4.81,1-10.91-3.2-14.94-6-.7-.48-1.36-.93-1.93-1.3a9,9,0,0,0-8.66-.33l-.32-.13,3.14-10.59.11,0a21,21,0,0,1,16.25,4.69c3,2.63,9.26,3.81,9.32,3.82Zm-3.35,9.45,2.89-9.18c-1.12-.22-6.48-1.4-9.29-3.86a20.61,20.61,0,0,0-15.85-4.62l-2.94,9.89a6.7,6.7,0,0,1,.94-.36,9.68,9.68,0,0,1,7.75.9l1.94,1.3C88.81,112.69,94.78,116.77,99.42,115.91Z" style="fill: rgb(255, 255, 255); transform-origin: 88.26px 107.027px;" id="elrr66h358t39" class="animable"></path></g></g><path d="M448.46,196.65s-.07,11.66-12.66,17.88C428,218.38,414,228,416.07,234.27l13.52,13.65s7.17-9.08,17.94-13.8c10.59-4.63,18.73-20.77,18.73-20.77Z" style="fill: rgb(69, 52, 170); transform-origin: 441.062px 222.285px;" id="ely16zstibilp" class="animable"></path><g id="elvqr2refakf"><g style="opacity: 0.4; transform-origin: 442.021px 224.102px;" class="animable"><path d="M446.16,231.73a9.18,9.18,0,0,1-13.28-4c-1.77-4.45,2.43-10.29,6.87-12.06A8.67,8.67,0,0,1,451,220.48C452.78,224.92,450.23,229.21,446.16,231.73Z" style="fill: rgb(255, 255, 255); transform-origin: 442.021px 224.102px;" id="eltmv07n19kca" class="animable"></path></g></g><path d="M443,229.85c-.06-.14.2-.4.67-.79a10.83,10.83,0,0,0,1.75-1.7,4,4,0,0,0,.65-1.33,1.88,1.88,0,0,0-.11-1.34,1.42,1.42,0,0,0-1.07-.72,2.39,2.39,0,0,0-1.54.63c-.32.23-.65.5-1,.75a4.84,4.84,0,0,1-1.39.66,3.11,3.11,0,0,1-.86.1,2.41,2.41,0,0,1-.88-.16,2.87,2.87,0,0,1-1.34-1,3.08,3.08,0,0,1-.44-2.79,4.5,4.5,0,0,1,1.18-1.83,6,6,0,0,1,1.36-.95,6.47,6.47,0,0,1,1.09-.46c.61-.2,1-.23,1-.11s-.18.41-.65.81a11.18,11.18,0,0,0-1.76,1.69,3.38,3.38,0,0,0-.61,1.3,1.28,1.28,0,0,0,.29,1.16,1,1,0,0,0,.47.3.72.72,0,0,0,.26,0,1.18,1.18,0,0,0,.31-.05,7.53,7.53,0,0,0,1.78-1.13,6.08,6.08,0,0,1,1.29-.75,4.28,4.28,0,0,1,.82-.21,2.66,2.66,0,0,1,.89,0,3.27,3.27,0,0,1,2.5,1.88,3.51,3.51,0,0,1,0,2.72,5,5,0,0,1-1.19,1.77,6.59,6.59,0,0,1-2.44,1.43C443.46,230,443.08,230,443,229.85Z" style="fill: rgb(69, 52, 170); transform-origin: 442.609px 224.345px;" id="el8wjbqwop1nn" class="animable"></path><path d="M448.13,228.68c-.2.2-2.53-1.9-5.2-4.69s-4.68-5.2-4.48-5.4,2.54,1.9,5.22,4.69S448.34,228.48,448.13,228.68Z" style="fill: rgb(69, 52, 170); transform-origin: 443.291px 223.635px;" id="elflj6wszrny9" class="animable"></path><path d="M446.76,229.51c-.2.2-2.34-1.69-4.76-4.22s-4.23-4.74-4-4.94,2.34,1.7,4.76,4.23S447,229.32,446.76,229.51Z" style="fill: rgb(69, 52, 170); transform-origin: 442.381px 224.93px;" id="elj4iusz2tgob" class="animable"></path><g id="elen7bjfe7o2t"><g style="opacity: 0.5; transform-origin: 440.34px 222.63px;" class="animable"><path d="M429.64,245.33l-12.25-12.46.06-.17c2.38-8,13.57-13.87,21-17.74,1.27-.66,2.48-1.29,3.5-1.86,6.83-3.8,7.74-12.13,7.44-12.78l.47-.39,13.43,13.23-.06.18a35.79,35.79,0,0,1-20.1,20.74c-6.38,2.44-13.17,10.9-13.24,11ZM418.08,232.7l11.52,11.71c1.23-1.5,7.32-8.63,13.28-10.9a35.18,35.18,0,0,0,19.68-20.19L450,201a11.75,11.75,0,0,1-.22,1.69c-.36,1.79-2,7.85-7.58,11-1,.57-2.23,1.21-3.51,1.87C431.44,219.3,420.51,225,418.08,232.7Z" style="fill: rgb(255, 255, 255); transform-origin: 440.34px 222.63px;" id="elcn375t8bjhc" class="animable"></path></g></g><path d="M454.86,98.61s-7.41,1.64-13.18-5.45c-3.56-4.4-11.65-11.89-15.37-9.68L419.59,94a34.14,34.14,0,0,1,11.35,9.4c4.47,6,15.88,8.89,15.88,8.89Z" style="fill: rgb(69, 52, 170); transform-origin: 437.225px 97.6855px;" id="eln9vfnpwl218" class="animable"></path><g id="el6h2lnhy3uis"><g style="opacity: 0.4; transform-origin: 436.54px 98.5397px;" class="animable"><path d="M432.26,102.21a6,6,0,0,1,.65-9c2.57-1.77,6.88.06,8.65,2.62a5.65,5.65,0,0,1-1.46,7.85C437.54,105.43,434.45,104.43,432.26,102.21Z" style="fill: rgb(255, 255, 255); transform-origin: 436.54px 98.5397px;" id="elxdc5pjvc3fi" class="animable"></path></g></g><path d="M433,100c.08-.06.28.07.6.31a6.67,6.67,0,0,0,1.33.86,2.28,2.28,0,0,0,.94.22,1.17,1.17,0,0,0,.83-.26.93.93,0,0,0,.31-.78,1.57,1.57,0,0,0-.63-.89c-.19-.17-.41-.34-.62-.55a3,3,0,0,1-.62-.79,2,2,0,0,1-.19-.53,1.89,1.89,0,0,1,0-.58,1.84,1.84,0,0,1,.44-1,1.91,1.91,0,0,1,.81-.57,1.88,1.88,0,0,1,.89-.11,3,3,0,0,1,1.33.48,3.84,3.84,0,0,1,.8.72,4.26,4.26,0,0,1,.45.63c.22.36.29.59.22.65s-.28-.06-.61-.3a7,7,0,0,0-1.33-.87,2.18,2.18,0,0,0-.9-.2.82.82,0,0,0-.7.35.64.64,0,0,0-.12.34.33.33,0,0,0,0,.17,1,1,0,0,0,.08.19,4.58,4.58,0,0,0,1,1,3.87,3.87,0,0,1,.66.72,2.54,2.54,0,0,1,.26.49,1.83,1.83,0,0,1,.13.56,2.15,2.15,0,0,1-.84,1.86,2.28,2.28,0,0,1-1.72.41,3,3,0,0,1-1.29-.5,4,4,0,0,1-1.26-1.35C433,100.24,432.93,100,433,100Z" style="fill: rgb(69, 52, 170); transform-origin: 436.445px 98.9388px;" id="elj9w8qtjw9rb" class="animable"></path><path d="M434.48,103c-.15-.1.84-1.88,2.22-4s2.63-3.72,2.79-3.62-.84,1.89-2.23,4S434.63,103.13,434.48,103Z" style="fill: rgb(69, 52, 170); transform-origin: 436.986px 99.1914px;" id="eliew35avbla" class="animable"></path><path d="M433.75,102.27c-.15-.1.74-1.73,2-3.63s2.4-3.37,2.55-3.26-.74,1.73-2,3.63S433.91,102.37,433.75,102.27Z" style="fill: rgb(69, 52, 170); transform-origin: 436.025px 98.8245px;" id="elumucmd62koe" class="animable"></path><g id="elr1nt5ecqiln"><g style="opacity: 0.5; transform-origin: 437.105px 97.27px;" class="animable"><path d="M421.24,93.69l6.15-9.58h.11c5.44.36,10.76,6.62,14.29,10.76.6.71,1.18,1.38,1.68,2a10,10,0,0,0,9.19,2.88l.31.24-6.46,10.44h-.12a23.27,23.27,0,0,1-16.06-9.78c-2.47-3.69-8.82-6.78-8.89-6.81Zm6.35-9.16-5.77,9c1.13.56,6.53,3.4,8.84,6.85A22.85,22.85,0,0,0,446.31,110l6-9.74a7.42,7.42,0,0,1-1.11.1,10.72,10.72,0,0,1-8.05-3.22c-.51-.57-1.09-1.25-1.7-2C438,91.08,432.82,85,427.59,84.53Z" style="fill: rgb(255, 255, 255); transform-origin: 437.105px 97.27px;" id="ele6rwb8lw4h" class="animable"></path></g></g><path d="M364.1,106.29s-9.29,7-21.89.86c-7.8-3.84-23.91-9.09-27.68-3.62l-2.58,19s11.57.15,21.87,5.82c10.13,5.57,27.88,2.19,27.88,2.19Z" style="fill: rgb(69, 52, 170); transform-origin: 338.025px 116.364px;" id="el80bckl17yw" class="animable"></path><g id="elz8vuc2lu5w"><g style="opacity: 0.4; transform-origin: 338.426px 118.048px;" class="animable"><path d="M334.89,125.84a9.17,9.17,0,0,1-4.89-13c2.44-4.11,9.64-4.34,13.75-1.9a8.67,8.67,0,0,1,3,11.88C344.32,126.94,339.36,127.54,334.89,125.84Z" style="fill: rgb(255, 255, 255); transform-origin: 338.426px 118.048px;" id="eld8gmzala9k" class="animable"></path></g></g><path d="M334.47,122.21c.06-.13.43-.09,1,.05a10.21,10.21,0,0,0,2.41.34,3.72,3.72,0,0,0,1.45-.29,1.86,1.86,0,0,0,1-.9,1.46,1.46,0,0,0-.08-1.29,2.44,2.44,0,0,0-1.45-.83c-.37-.11-.78-.22-1.22-.37a5.09,5.09,0,0,1-1.37-.7,3.58,3.58,0,0,1-.61-.62,2.64,2.64,0,0,1-.41-.8,2.94,2.94,0,0,1,0-1.66,3.08,3.08,0,0,1,.77-1.32,3.13,3.13,0,0,1,1.17-.72,4.38,4.38,0,0,1,2.17-.18,5.78,5.78,0,0,1,1.58.49,7,7,0,0,1,1,.58c.53.37.78.64.72.77s-.43.1-1,0a10.9,10.9,0,0,0-2.41-.36,3.36,3.36,0,0,0-1.4.3,1.29,1.29,0,0,0-.74.94.92.92,0,0,0,0,.55.76.76,0,0,0,.13.23,1.71,1.71,0,0,0,.24.21,7.27,7.27,0,0,0,2,.72,6,6,0,0,1,1.37.57,4.23,4.23,0,0,1,.68.52,3.28,3.28,0,0,1,.54.7,3.33,3.33,0,0,1,0,3.14,3.49,3.49,0,0,1-2.14,1.67,4.78,4.78,0,0,1-2.13.14,6.47,6.47,0,0,1-2.62-1.07C334.64,122.62,334.4,122.33,334.47,122.21Z" style="fill: rgb(69, 52, 170); transform-origin: 338.533px 118.504px;" id="el1z9far5v58h" class="animable"></path><path d="M338.5,125.55c-.28,0,0-3.17.55-7s1.27-6.88,1.55-6.83,0,3.17-.54,7S338.79,125.59,338.5,125.55Z" style="fill: rgb(69, 52, 170); transform-origin: 339.55px 118.635px;" id="el3cjto28ry9e" class="animable"></path><path d="M337,125c-.28,0-.08-2.89.44-6.35s1.19-6.24,1.47-6.2.08,2.89-.45,6.35S337.29,125,337,125Z" style="fill: rgb(69, 52, 170); transform-origin: 337.955px 118.725px;" id="elxthf0h2q6z9" class="animable"></path><g id="el4ag2cpp4evu"><g style="opacity: 0.5; transform-origin: 338.15px 116.25px;" class="animable"><path d="M314,121l2.42-17.3.17-.07c7.82-3,19.26,2.31,26.84,5.82,1.31.61,2.54,1.18,3.61,1.64,7.17,3.1,14.34-1.25,14.67-1.88l.59.13L360,128.09l-.18.06a35.77,35.77,0,0,1-28.69-3.31c-5.83-3.57-16.67-3.8-16.78-3.8Zm3-16.86-2.28,16.27c1.95.06,11.31.54,16.74,3.88a35.17,35.17,0,0,0,28,3.31l2.15-17.48a11.25,11.25,0,0,1-1.48.86c-1.63.8-7.41,3.23-13.31.68-1.08-.47-2.32-1-3.63-1.65C335.78,106.6,324.58,101.41,317,104.17Z" style="fill: rgb(255, 255, 255); transform-origin: 338.15px 116.25px;" id="elwiyetrul6a" class="animable"></path></g></g><path d="M354.44,235.92s-9.24-2-12.07-13c-1.75-6.83-7-19.52-12.36-19l-13.09,8.44a42.58,42.58,0,0,1,7.94,16.55c1.91,9.17,13.35,18.33,13.35,18.33Z" style="fill: rgb(69, 52, 170); transform-origin: 335.68px 225.572px;" id="el352lv9eu5uz" class="animable"></path><g id="elgl1lmcg6ik"><g style="opacity: 0.4; transform-origin: 333.747px 226.171px;" class="animable"><path d="M327,228.22a7.44,7.44,0,0,1,5.43-9.86c3.82-.66,7.76,3.65,8.42,7.47a7,7,0,0,1-5.73,8.12C331.28,234.61,328.31,231.87,327,228.22Z" style="fill: rgb(255, 255, 255); transform-origin: 333.747px 226.171px;" id="elxuly6vxi1hh" class="animable"></path></g></g><path d="M329,226.05c.11,0,.28.22.51.66a8.89,8.89,0,0,0,1.06,1.67,3.12,3.12,0,0,0,.94.74,1.52,1.52,0,0,0,1.09.13,1.15,1.15,0,0,0,.75-.72,2,2,0,0,0-.25-1.33c-.13-.29-.28-.6-.42-.95a4.05,4.05,0,0,1-.29-1.21,2.72,2.72,0,0,1,.06-.7,2.31,2.31,0,0,1,1.28-1.57,2.53,2.53,0,0,1,1.23-.22,2.65,2.65,0,0,1,1.06.34,3.61,3.61,0,0,1,1.25,1.24,5,5,0,0,1,.53,1.23,5.4,5.4,0,0,1,.18.94c.06.53,0,.82-.09.85s-.29-.21-.53-.65a8.69,8.69,0,0,0-1.05-1.68,2.62,2.62,0,0,0-.92-.7,1.06,1.06,0,0,0-1,0,.92.92,0,0,0-.32.33.59.59,0,0,0-.06.2.74.74,0,0,0,0,.26,5.9,5.9,0,0,0,.6,1.59,4.65,4.65,0,0,1,.37,1.16,3.07,3.07,0,0,1,0,.68,2.43,2.43,0,0,1-.15.71,2.69,2.69,0,0,1-1.92,1.67,2.81,2.81,0,0,1-2.15-.44,3.94,3.94,0,0,1-1.21-1.24,5.17,5.17,0,0,1-.72-2.17C328.85,226.37,328.9,226.07,329,226.05Z" style="fill: rgb(69, 52, 170); transform-origin: 333.417px 226.659px;" id="ell18ehdjpa4h" class="animable"></path><path d="M329.08,230.3c-.13-.2,1.93-1.7,4.59-3.35s4.91-2.84,5-2.65-1.93,1.7-4.59,3.36S329.2,230.49,329.08,230.3Z" style="fill: rgb(69, 52, 170); transform-origin: 333.874px 227.3px;" id="elnbl803d6dze" class="animable"></path><path d="M328.65,229.07c-.13-.2,1.73-1.57,4.14-3.07s4.47-2.56,4.6-2.37-1.74,1.58-4.15,3.07S328.77,229.26,328.65,229.07Z" style="fill: rgb(69, 52, 170); transform-origin: 333.02px 226.35px;" id="elbtfk57hrzyv" class="animable"></path><g id="elg5sxjhqclar"><g style="opacity: 0.5; transform-origin: 335.32px 225.055px;" class="animable"><path d="M319,212.84l11.94-7.63.13.07c6,3.23,8.73,13.08,10.56,19.6.31,1.13.61,2.19.89,3.09,1.87,6.06,8.33,8.18,8.9,8.05l.22.43-12.74,8.45-.13-.08a29,29,0,0,1-13.09-19.42c-.87-5.47-6.44-12.28-6.5-12.35Zm12-7.06L319.7,213c1,1.23,5.62,7.25,6.43,12.36a28.47,28.47,0,0,0,12.72,19l11.9-7.88a10.92,10.92,0,0,1-1.31-.46c-1.35-.59-5.9-2.87-7.43-7.85-.28-.91-.58-2-.9-3.1C339.32,218.63,336.61,209,330.92,205.78Z" style="fill: rgb(255, 255, 255); transform-origin: 335.32px 225.055px;" id="elzqnap4ma0i" class="animable"></path></g></g><path d="M266.79,163.25s-7.35,1.39-12.82-5.78c-3.38-4.43-11.13-12.06-14.86-10l-6.93,10.19a33.73,33.73,0,0,1,10.9,9.6c4.22,6.1,15.38,9.24,15.38,9.24Z" style="fill: rgb(69, 52, 170); transform-origin: 249.485px 161.812px;" id="el4zyizks7d8a" class="animable"></path><g id="elnttt03jss9n"><g style="opacity: 0.4; transform-origin: 248.73px 162.612px;" class="animable"><path d="M244.41,166.12a5.9,5.9,0,0,1,.91-8.87c2.58-1.66,6.78.27,8.45,2.85a5.56,5.56,0,0,1-1.67,7.68C249.51,169.45,246.5,168.37,244.41,166.12Z" style="fill: rgb(255, 255, 255); transform-origin: 248.73px 162.612px;" id="elw1amaawmhre" class="animable"></path></g></g><path d="M245.21,163.91c.08-.06.28.07.58.32a6.48,6.48,0,0,0,1.29.89,2.51,2.51,0,0,0,.91.25,1.16,1.16,0,0,0,.83-.24.9.9,0,0,0,.33-.76,1.63,1.63,0,0,0-.59-.89c-.19-.17-.39-.35-.6-.56a3.13,3.13,0,0,1-.59-.8,2.19,2.19,0,0,1-.17-.53,1.81,1.81,0,0,1,0-.57,1.91,1.91,0,0,1,1.28-1.5,2,2,0,0,1,.88-.08,2.84,2.84,0,0,1,1.3.51,3.84,3.84,0,0,1,.76.74,4.18,4.18,0,0,1,.43.63c.2.36.26.59.19.64s-.27-.06-.58-.31a7.65,7.65,0,0,0-1.29-.9,2.29,2.29,0,0,0-.89-.22.79.79,0,0,0-.69.32.6.6,0,0,0-.13.34.45.45,0,0,0,0,.16.64.64,0,0,0,.08.19,4.41,4.41,0,0,0,.93,1,3.83,3.83,0,0,1,.62.73,2,2,0,0,1,.24.49,1.79,1.79,0,0,1,.11.55,2.1,2.1,0,0,1-.88,1.81,2.21,2.21,0,0,1-1.71.35,3,3,0,0,1-1.26-.53,4.21,4.21,0,0,1-1.2-1.36C245.19,164.19,245.14,164,245.21,163.91Z" style="fill: rgb(69, 52, 170); transform-origin: 248.624px 162.969px;" id="elescb60mzdqb" class="animable"></path><path d="M246.58,167c-.15-.1.88-1.83,2.31-3.85s2.7-3.59,2.85-3.49-.89,1.84-2.31,3.86S246.72,167.09,246.58,167Z" style="fill: rgb(69, 52, 170); transform-origin: 249.16px 163.33px;" id="el66zagt91x5c" class="animable"></path><path d="M245.88,166.22c-.15-.1.78-1.68,2.08-3.52s2.46-3.24,2.61-3.14-.78,1.68-2.07,3.52S246,166.33,245.88,166.22Z" style="fill: rgb(69, 52, 170); transform-origin: 248.225px 162.89px;" id="elzk944ld6dkb" class="animable"></path><g id="el4g02fw0bxxk"><g style="opacity: 0.5; transform-origin: 249.365px 161.365px;" class="animable"><path d="M233.81,157.39l6.34-9.25h.12c5.35.51,10.4,6.84,13.75,11,.58.72,1.12,1.41,1.6,2a9.86,9.86,0,0,0,9,3.11l.3.25-6.68,10.09-.12,0a22.91,22.91,0,0,1-15.53-10.11c-2.32-3.71-8.49-6.95-8.55-7Zm6.53-8.84-6,8.69c1.1.6,6.34,3.55,8.51,7A22.61,22.61,0,0,0,258,174.18l6.24-9.43a7.45,7.45,0,0,1-1.09.07,10.57,10.57,0,0,1-7.85-3.42c-.48-.57-1-1.26-1.61-2C250.43,155.32,245.49,149.13,240.34,148.55Z" style="fill: rgb(255, 255, 255); transform-origin: 249.365px 161.365px;" id="elc7jhfjn6q2n" class="animable"></path></g></g><path d="M82.43,299.09s-7.35,1.39-12.82-5.78c-3.38-4.43-11.13-12.06-14.86-10l-6.93,10.19a33.73,33.73,0,0,1,10.9,9.6c4.22,6.1,15.38,9.24,15.38,9.24Z" style="fill: rgb(69, 52, 170); transform-origin: 65.125px 297.652px;" id="eltgmqh331ym" class="animable"></path><g id="elps3jv5xksl"><g style="opacity: 0.4; transform-origin: 64.3728px 298.478px;" class="animable"><path d="M60.06,302a5.89,5.89,0,0,1,.91-8.87c2.58-1.66,6.78.27,8.44,2.85a5.56,5.56,0,0,1-1.67,7.68C65.16,305.29,62.14,304.21,60.06,302Z" style="fill: rgb(255, 255, 255); transform-origin: 64.3728px 298.478px;" id="elu5c70b1793" class="animable"></path></g></g><path d="M60.86,299.75c.07-.06.27.07.57.32a6.48,6.48,0,0,0,1.29.89,2.51,2.51,0,0,0,.92.25,1.19,1.19,0,0,0,.83-.24.92.92,0,0,0,.32-.76,1.57,1.57,0,0,0-.59-.89c-.18-.17-.39-.35-.6-.56A3.11,3.11,0,0,1,63,298a1.83,1.83,0,0,1-.17-.53,1.56,1.56,0,0,1,0-.57,1.83,1.83,0,0,1,.45-1,1.87,1.87,0,0,1,.83-.54,1.9,1.9,0,0,1,.87-.08,2.84,2.84,0,0,1,1.3.51,3.66,3.66,0,0,1,.77.74,4,4,0,0,1,.42.63c.2.36.27.59.2.65s-.28-.07-.59-.32a7.52,7.52,0,0,0-1.28-.9,2.38,2.38,0,0,0-.89-.22.84.84,0,0,0-.7.32.69.69,0,0,0-.13.34.43.43,0,0,0,0,.16.64.64,0,0,0,.08.19,4.41,4.41,0,0,0,.93,1,3.86,3.86,0,0,1,.63.73,3.19,3.19,0,0,1,.24.49,1.78,1.78,0,0,1,.1.55A2.11,2.11,0,0,1,65.2,302a2.28,2.28,0,0,1-1.7.35,3,3,0,0,1-1.26-.54A4,4,0,0,1,61,300.4C60.84,300,60.78,299.8,60.86,299.75Z" style="fill: rgb(69, 52, 170); transform-origin: 64.2606px 298.826px;" id="elvjq8ttoavb9" class="animable"></path><path d="M62.22,302.82c-.15-.1.88-1.83,2.31-3.85s2.7-3.59,2.85-3.49-.88,1.84-2.31,3.86S62.37,302.93,62.22,302.82Z" style="fill: rgb(69, 52, 170); transform-origin: 64.8px 299.15px;" id="elqwvvjyv9wc8" class="animable"></path><path d="M61.53,302.06c-.15-.1.77-1.68,2.07-3.52s2.47-3.24,2.61-3.14-.77,1.68-2.07,3.52S61.67,302.17,61.53,302.06Z" style="fill: rgb(69, 52, 170); transform-origin: 63.8691px 298.73px;" id="elabaexwbso1t" class="animable"></path><g id="elzzqhmdfo78"><g style="opacity: 0.5; transform-origin: 65.01px 297.225px;" class="animable"><path d="M49.45,293.23,55.8,284h.11c5.35.51,10.41,6.84,13.75,11,.58.73,1.12,1.41,1.61,2a9.84,9.84,0,0,0,9,3.11l.3.25-6.67,10.09-.13,0A22.91,22.91,0,0,1,58.2,300.31c-2.32-3.71-8.49-6.95-8.55-7ZM56,284.39l-6,8.69c1.1.6,6.33,3.55,8.5,7A22.57,22.57,0,0,0,73.67,310l6.23-9.43a7.38,7.38,0,0,1-1.09.07A10.55,10.55,0,0,1,71,297.24c-.49-.57-1-1.26-1.61-2C66.08,291.16,61.13,285,56,284.39Z" style="fill: rgb(255, 255, 255); transform-origin: 65.01px 297.225px;" id="elrp18vskd4j" class="animable"></path></g></g><path d="M190.21,204.84s-2.73,8.9-13.79,10.77c-6.85,1.15-19.75,5.26-19.64,10.57l7.2,13.55a41.94,41.94,0,0,1,16.91-6.43c9.17-1.11,19.1-11.59,19.1-11.59Z" style="fill: rgb(69, 52, 170); transform-origin: 178.385px 222.285px;" id="elj7y7dt2jy3" class="animable"></path><g id="elyraueq2gpfn"><g style="opacity: 0.4; transform-origin: 178.915px 224.377px;" class="animable"><path d="M180.39,231.15a7.32,7.32,0,0,1-9.23-6.14c-.34-3.81,4.22-7.32,8-7.65a6.93,6.93,0,0,1,7.5,6.3C187,227.47,184.08,230.16,180.39,231.15Z" style="fill: rgb(255, 255, 255); transform-origin: 178.915px 224.377px;" id="elvwmj3o6fjd" class="animable"></path></g></g><path d="M178.42,229c0-.12.24-.26.7-.45a8.23,8.23,0,0,0,1.72-.9,2.91,2.91,0,0,0,.8-.87,1.43,1.43,0,0,0,.23-1.05,1.15,1.15,0,0,0-.65-.79,1.92,1.92,0,0,0-1.33.13c-.29.1-.61.23-1,.33a3.5,3.5,0,0,1-1.21.18,2.61,2.61,0,0,1-.68-.11,2,2,0,0,1-.64-.33,2.25,2.25,0,0,1-.79-1.06,2.33,2.33,0,0,1-.12-1.22,2.51,2.51,0,0,1,.42-1,3.53,3.53,0,0,1,1.32-1.13,5,5,0,0,1,1.26-.42,6,6,0,0,1,.94-.1c.51,0,.8.05.82.16s-.23.27-.68.47a8.45,8.45,0,0,0-1.74.89,2.58,2.58,0,0,0-.76.85,1,1,0,0,0-.05.95.76.76,0,0,0,.29.34.64.64,0,0,0,.19.08,1,1,0,0,0,.26,0,5.89,5.89,0,0,0,1.61-.46,4.9,4.9,0,0,1,1.17-.27,3,3,0,0,1,.67,0,2.24,2.24,0,0,1,.68.21,2.64,2.64,0,0,1,1.49,2,2.81,2.81,0,0,1-.61,2.08,3.75,3.75,0,0,1-1.32,1.08,5,5,0,0,1-2.19.53C178.73,229.18,178.44,229.1,178.42,229Z" style="fill: rgb(69, 52, 170); transform-origin: 179.387px 224.675px;" id="els5459t7ja6q" class="animable"></path><path d="M182.6,229.27c-.2.11-1.5-2-2.91-4.78s-2.38-5.06-2.18-5.16,1.51,2,2.91,4.78S182.8,229.17,182.6,229.27Z" style="fill: rgb(69, 52, 170); transform-origin: 180.055px 224.3px;" id="el6ff9a8ontja" class="animable"></path><path d="M181.36,229.59c-.2.11-1.4-1.83-2.67-4.32s-2.15-4.6-1.95-4.7,1.4,1.83,2.68,4.32S181.56,229.49,181.36,229.59Z" style="fill: rgb(69, 52, 170); transform-origin: 179.05px 225.08px;" id="elki987yrjov" class="animable"></path><g id="elnbjyf4ylvsb"><g style="opacity: 0.5; transform-origin: 177.93px 222.715px;" class="animable"><path d="M164.62,237.77l-6.51-12.36.08-.12c3.67-5.59,13.58-7.49,20.13-8.75,1.13-.22,2.19-.42,3.1-.62,6.1-1.34,8.72-7.5,8.64-8.07l.45-.19,7.24,13.21-.09.13a28.61,28.61,0,0,1-20.16,11.25c-5.44.39-12.58,5.31-12.65,5.36Zm-5.94-12.33,6.12,11.61c1.29-.86,7.58-4.92,12.67-5.29a28.11,28.11,0,0,0,19.7-10.92l-6.76-12.34a9.88,9.88,0,0,1-.56,1.25c-.68,1.28-3.3,5.55-8.32,6.65-.92.2-2,.4-3.12.62C172,218.26,162.3,220.11,158.68,225.44Z" style="fill: rgb(255, 255, 255); transform-origin: 177.93px 222.715px;" id="ellvnev913bep" class="animable"></path></g></g><path d="M130.24,179.64s-9.15,7.22-21.87,1.26c-7.87-3.69-24.07-8.64-27.74-3.11L78.4,196.87s11.57-.06,22,5.42c10.22,5.38,27.91,1.68,27.91,1.68Z" style="fill: rgb(69, 52, 170); transform-origin: 104.32px 190.263px;" id="elwqo52asb8y" class="animable"></path><g id="elvbpycv2eqem"><g style="opacity: 0.4; transform-origin: 104.789px 191.873px;" class="animable"><path d="M101.39,199.73a9.18,9.18,0,0,1-5.13-12.9c2.38-4.16,9.57-4.52,13.72-2.15a8.66,8.66,0,0,1,3.23,11.82C110.84,200.65,105.9,201.34,101.39,199.73Z" style="fill: rgb(255, 255, 255); transform-origin: 104.789px 191.873px;" id="elnjwnx9blvur" class="animable"></path></g></g><path d="M100.91,196.1c.06-.13.43-.09,1,0a10.12,10.12,0,0,0,2.42.3,3.71,3.71,0,0,0,1.44-.32,1.85,1.85,0,0,0,1-.92,1.44,1.44,0,0,0-.1-1.28,2.45,2.45,0,0,0-1.46-.81c-.38-.11-.79-.2-1.23-.35a4.87,4.87,0,0,1-1.38-.67,3.58,3.58,0,0,1-.62-.61,3,3,0,0,1-.43-.79,3,3,0,0,1-.06-1.66,3.05,3.05,0,0,1,1.9-2.08,4.44,4.44,0,0,1,2.17-.22,6,6,0,0,1,1.59.47,7.92,7.92,0,0,1,1,.56c.54.36.79.63.73.75s-.42.11-1,0a11.27,11.27,0,0,0-2.42-.31,3.3,3.3,0,0,0-1.39.33,1.26,1.26,0,0,0-.72.94,1,1,0,0,0,0,.56,1.07,1.07,0,0,0,.15.22,1.17,1.17,0,0,0,.23.21,7.45,7.45,0,0,0,2,.68,6.39,6.39,0,0,1,1.38.55,4.64,4.64,0,0,1,.69.5,3.09,3.09,0,0,1,.55.7,3.29,3.29,0,0,1,.09,3.13,3.5,3.5,0,0,1-2.11,1.72,4.94,4.94,0,0,1-2.12.17,6.44,6.44,0,0,1-2.64-1C101.09,196.51,100.85,196.22,100.91,196.1Z" style="fill: rgb(69, 52, 170); transform-origin: 104.895px 192.279px;" id="elwyrl8ubru9" class="animable"></path><path d="M105,199.37c-.29,0-.1-3.17.41-7s1.15-6.9,1.43-6.86.1,3.17-.41,7S105.29,199.41,105,199.37Z" style="fill: rgb(69, 52, 170); transform-origin: 105.918px 192.44px;" id="elteyx8yckhqg" class="animable"></path><path d="M103.5,198.81c-.28,0-.14-2.88.33-6.35s1.07-6.26,1.35-6.23.13,2.89-.33,6.36S103.78,198.85,103.5,198.81Z" style="fill: rgb(69, 52, 170); transform-origin: 104.339px 192.52px;" id="eluah0rce68a" class="animable"></path><g id="elmmspjjkg2m"><g style="opacity: 0.5; transform-origin: 104.52px 190.194px;" class="animable"><path d="M80.46,195.3,82.56,178l.16-.06c7.76-3.15,19.31,2,27,5.32,1.31.59,2.56,1.13,3.64,1.58,7.22,3,14.31-1.51,14.63-2.16l.59.13-2,18.75-.18.06a35.79,35.79,0,0,1-28.75-2.77c-5.88-3.47-16.73-3.5-16.84-3.5Zm2.66-16.91-2,16.3c1.94,0,11.31.34,16.8,3.58A35.22,35.22,0,0,0,126,201.06l1.83-17.51a11.39,11.39,0,0,1-1.47.88c-1.61.84-7.35,3.36-13.3.92-1.08-.44-2.33-1-3.65-1.58C101.93,180.47,90.64,175.48,83.12,178.39Z" style="fill: rgb(255, 255, 255); transform-origin: 104.52px 190.194px;" id="elslu0onsv5w9" class="animable"></path></g></g><path d="M203.63,57.07s1.28,10.2-9,17.08c-6.38,4.27-17.5,14.24-15,19.54L193,104.06a46.41,46.41,0,0,1,14.1-14.13c8.73-5.26,14-20.31,14-20.31Z" style="fill: rgb(69, 52, 170); transform-origin: 200.185px 80.565px;" id="elenforqvpjy" class="animable"></path><g id="elnyhvqr06zw9"><g style="opacity: 0.4; transform-origin: 201.197px 81.7792px;" class="animable"><path d="M205.65,88a8.1,8.1,0,0,1-12.08-2c-2.06-3.69,1-9.28,4.63-11.34a7.65,7.65,0,0,1,10.4,2.94C210.66,81.29,208.92,85.33,205.65,88Z" style="fill: rgb(255, 255, 255); transform-origin: 201.197px 81.7792px;" id="elasmsdy2sle" class="animable"></path></g></g><path d="M202.69,86.71c-.07-.1.13-.36.5-.76a9.46,9.46,0,0,0,1.33-1.69,3.37,3.37,0,0,0,.41-1.23,1.63,1.63,0,0,0-.25-1.16,1.25,1.25,0,0,0-1-.51,2.16,2.16,0,0,0-1.28.73c-.25.24-.51.51-.82.78a4.56,4.56,0,0,1-1.14.73,3.22,3.22,0,0,1-.74.19,2.32,2.32,0,0,1-.79,0,2.56,2.56,0,0,1-1.28-.71,2.61,2.61,0,0,1-.67-1.17,2.94,2.94,0,0,1,0-1.21,4,4,0,0,1,.82-1.74,5.26,5.26,0,0,1,1.08-1,6.25,6.25,0,0,1,.9-.53c.52-.25.83-.32.9-.22s-.11.38-.48.78a10.14,10.14,0,0,0-1.34,1.69,2.86,2.86,0,0,0-.38,1.2,1.12,1.12,0,0,0,.38,1,.89.89,0,0,0,.45.21.92.92,0,0,0,.23,0,1,1,0,0,0,.26-.08,6.5,6.5,0,0,0,1.42-1.2,6,6,0,0,1,1-.8,4.15,4.15,0,0,1,.69-.28,2.61,2.61,0,0,1,.78-.1,2.92,2.92,0,0,1,2.41,1.36,3.06,3.06,0,0,1,.33,2.37,4.2,4.2,0,0,1-.83,1.68,5.81,5.81,0,0,1-2,1.53C203.08,86.77,202.76,86.82,202.69,86.71Z" style="fill: rgb(69, 52, 170); transform-origin: 201.706px 81.9666px;" id="el8o2bq3kih6w" class="animable"></path><path d="M207,85.11c-.16.19-2.44-1.37-5.1-3.5s-4.69-4-4.53-4.21,2.44,1.37,5.1,3.5S207.18,84.91,207,85.11Z" style="fill: rgb(69, 52, 170); transform-origin: 202.186px 81.2535px;" id="el6sfjqs5ze72" class="animable"></path><path d="M205.92,86c-.15.2-2.24-1.21-4.65-3.14S197,79.19,197.19,79s2.24,1.22,4.65,3.15S206.08,85.8,205.92,86Z" style="fill: rgb(69, 52, 170); transform-origin: 201.553px 82.5009px;" id="el3zdazbpcwi5" class="animable"></path><g id="elyy40dsq07co"><g style="opacity: 0.5; transform-origin: 199.52px 80.82px;" class="animable"><path d="M192.77,101.8l-12.14-9.49,0-.16c1.17-7.29,10.27-13.69,16.3-17.92,1-.73,2-1.42,2.85-2,5.53-4.11,5.37-11.5,5-12l.36-.39,13.27,10,0,.16a31.53,31.53,0,0,1-15.19,20.45c-5.3,2.86-10.26,11-10.31,11.12Zm-11.56-9.72L192.63,101c.9-1.46,5.4-8.39,10.35-11.07A31,31,0,0,0,217.87,70l-12.39-9.36a9.14,9.14,0,0,1,0,1.51c-.1,1.6-.81,7.09-5.36,10.46-.83.62-1.82,1.31-2.86,2C191.35,78.82,182.45,85.08,181.21,92.08Z" style="fill: rgb(255, 255, 255); transform-origin: 199.52px 80.82px;" id="elgb2y9t5welt" class="animable"></path></g></g></g><g id="freepik--Money--inject-93" class="animable" style="transform-origin: 259.5px 437.06px;"><rect x="379.12" y="425.67" width="52.66" height="11.39" style="fill: rgb(38, 50, 56); transform-origin: 405.45px 431.365px;" id="elqpqv1ye732" class="animable"></rect><polygon points="400.03 425.67 400.9 437.06 408.33 437.06 408.72 425.67 400.03 425.67" style="fill: rgb(224, 224, 224); transform-origin: 404.375px 431.365px;" id="elk3f2hpwnl3" class="animable"></polygon><rect x="366.35" y="425.67" width="52.66" height="11.39" style="fill: rgb(69, 90, 100); transform-origin: 392.68px 431.365px;" id="elaqhkfu527xj" class="animable"></rect><path d="M418.84,427.45c0,.15-11.71.26-26.16.26s-26.17-.11-26.17-.26,11.71-.26,26.17-.26S418.84,427.31,418.84,427.45Z" style="fill: rgb(38, 50, 56); transform-origin: 392.675px 427.45px;" id="elgaa8q6org0h" class="animable"></path><path d="M418.82,430.06c0,.14-11.71.26-26.16.26s-26.17-.12-26.17-.26,11.72-.26,26.17-.26S418.82,429.92,418.82,430.06Z" style="fill: rgb(38, 50, 56); transform-origin: 392.655px 430.06px;" id="eln80dxw8ukyf" class="animable"></path><path d="M418.82,432.67c0,.14-11.71.26-26.16.26s-26.17-.12-26.17-.26,11.72-.26,26.17-.26S418.82,432.52,418.82,432.67Z" style="fill: rgb(38, 50, 56); transform-origin: 392.655px 432.67px;" id="el6li4yjz2enb" class="animable"></path><path d="M418.82,435.27c0,.15-11.71.26-26.16.26s-26.17-.11-26.17-.26,11.72-.26,26.17-.26S418.82,435.13,418.82,435.27Z" style="fill: rgb(38, 50, 56); transform-origin: 392.655px 435.27px;" id="elj8i7uw4yvy" class="animable"></path><polygon points="387.25 425.67 388.12 437.06 395.56 437.06 395.94 425.67 387.25 425.67" style="fill: rgb(224, 224, 224); transform-origin: 391.595px 431.365px;" id="elw4m63yl9we8" class="animable"></polygon><rect x="385.51" y="414.4" width="52.66" height="11.39" style="fill: rgb(38, 50, 56); transform-origin: 411.84px 420.095px;" id="elxtanbaepvda" class="animable"></rect><polygon points="406.42 414.4 407.29 425.79 414.72 425.79 415.11 414.4 406.42 414.4" style="fill: rgb(224, 224, 224); transform-origin: 410.765px 420.095px;" id="eludhrl8m3t9j" class="animable"></polygon><rect x="372.74" y="414.4" width="52.66" height="11.39" style="fill: rgb(69, 90, 100); transform-origin: 399.07px 420.095px;" id="el4k9uj2as988" class="animable"></rect><path d="M425.23,416.19c0,.14-11.72.26-26.16.26s-26.17-.12-26.17-.26,11.71-.26,26.17-.26S425.23,416,425.23,416.19Z" style="fill: rgb(38, 50, 56); transform-origin: 399.065px 416.19px;" id="elez5ltm4s0qa" class="animable"></path><path d="M425.21,418.79c0,.15-11.71.26-26.16.26s-26.17-.11-26.17-.26,11.72-.26,26.17-.26S425.21,418.65,425.21,418.79Z" style="fill: rgb(38, 50, 56); transform-origin: 399.045px 418.79px;" id="elit0ss96oqmb" class="animable"></path><path d="M425.21,421.4c0,.14-11.71.26-26.16.26s-26.17-.12-26.17-.26,11.72-.26,26.17-.26S425.21,421.26,425.21,421.4Z" style="fill: rgb(38, 50, 56); transform-origin: 399.045px 421.4px;" id="eli616i6h3h4f" class="animable"></path><path d="M425.21,424c0,.14-11.71.26-26.16.26s-26.17-.12-26.17-.26,11.72-.26,26.17-.26S425.21,423.86,425.21,424Z" style="fill: rgb(38, 50, 56); transform-origin: 399.045px 424px;" id="elfcfdkww06kt" class="animable"></path><polygon points="393.64 414.4 394.51 425.79 401.94 425.79 402.33 414.4 393.64 414.4" style="fill: rgb(224, 224, 224); transform-origin: 397.985px 420.095px;" id="eltdoe31ubz5s" class="animable"></polygon><rect x="381.94" y="448.33" width="52.66" height="11.39" style="fill: rgb(38, 50, 56); transform-origin: 408.27px 454.025px;" id="el4kmydmkm73" class="animable"></rect><polygon points="402.84 448.32 403.71 459.72 411.15 459.72 411.53 448.32 402.84 448.32" style="fill: rgb(224, 224, 224); transform-origin: 407.185px 454.02px;" id="el8xejrmh5ydj" class="animable"></polygon><rect x="369.16" y="448.32" width="52.66" height="11.39" style="fill: rgb(69, 90, 100); transform-origin: 395.49px 454.015px;" id="el6f6054hf8ei" class="animable"></rect><path d="M421.65,450.11c0,.15-11.71.26-26.16.26s-26.17-.11-26.17-.26,11.72-.26,26.17-.26S421.65,450,421.65,450.11Z" style="fill: rgb(38, 50, 56); transform-origin: 395.485px 450.11px;" id="el8sisaxfx9og" class="animable"></path><path d="M421.64,452.72c0,.14-11.72.26-26.17.26s-26.16-.12-26.16-.26,11.71-.26,26.16-.26S421.64,452.57,421.64,452.72Z" style="fill: rgb(38, 50, 56); transform-origin: 395.475px 452.72px;" id="el1t3w719ji6n" class="animable"></path><path d="M421.64,455.32c0,.15-11.72.27-26.17.27s-26.16-.12-26.16-.27,11.71-.26,26.16-.26S421.64,455.18,421.64,455.32Z" style="fill: rgb(38, 50, 56); transform-origin: 395.475px 455.325px;" id="el1xvne6no7a2" class="animable"></path><path d="M421.64,457.93c0,.15-11.72.26-26.17.26s-26.16-.11-26.16-.26,11.71-.26,26.16-.26S421.64,457.79,421.64,457.93Z" style="fill: rgb(38, 50, 56); transform-origin: 395.475px 457.93px;" id="el4bcwx0erq7f" class="animable"></path><polygon points="390.07 448.32 390.94 459.72 398.37 459.72 398.75 448.32 390.07 448.32" style="fill: rgb(224, 224, 224); transform-origin: 394.41px 454.02px;" id="eljv6yxxeo0yc" class="animable"></polygon><rect x="388.33" y="437.06" width="52.66" height="11.39" style="fill: rgb(38, 50, 56); transform-origin: 414.66px 442.755px;" id="elrec5f5j5z8a" class="animable"></rect><polygon points="409.23 437.06 410.1 448.45 417.54 448.45 417.92 437.06 409.23 437.06" style="fill: rgb(224, 224, 224); transform-origin: 413.575px 442.755px;" id="elpursbv7kgdm" class="animable"></polygon><rect x="375.55" y="437.06" width="52.66" height="11.39" style="fill: rgb(69, 90, 100); transform-origin: 401.88px 442.755px;" id="eln4af57l6f2" class="animable"></rect><path d="M428,438.84c0,.15-11.71.27-26.16.27s-26.17-.12-26.17-.27,11.72-.26,26.17-.26S428,438.7,428,438.84Z" style="fill: rgb(38, 50, 56); transform-origin: 401.835px 438.845px;" id="ell6ttr2o4i5" class="animable"></path><path d="M428,441.45c0,.15-11.71.26-26.16.26s-26.16-.11-26.16-.26,11.71-.26,26.16-.26S428,441.31,428,441.45Z" style="fill: rgb(38, 50, 56); transform-origin: 401.84px 441.45px;" id="elqrexylfd52" class="animable"></path><path d="M428,444.06c0,.14-11.71.26-26.16.26s-26.16-.12-26.16-.26,11.71-.26,26.16-.26S428,443.91,428,444.06Z" style="fill: rgb(38, 50, 56); transform-origin: 401.84px 444.06px;" id="elkmpa6aaspxs" class="animable"></path><path d="M428,446.66c0,.15-11.71.27-26.16.27s-26.16-.12-26.16-.27,11.71-.26,26.16-.26S428,446.52,428,446.66Z" style="fill: rgb(38, 50, 56); transform-origin: 401.84px 446.665px;" id="el7j9pjj2tc5" class="animable"></path><polygon points="396.45 437.06 397.32 448.45 404.76 448.45 405.14 437.06 396.45 437.06" style="fill: rgb(224, 224, 224); transform-origin: 400.795px 442.755px;" id="elizrwbgmq32h" class="animable"></polygon><rect x="346.51" y="436.94" width="52.66" height="11.39" style="fill: rgb(69, 52, 170); transform-origin: 372.84px 442.635px;" id="elbs25mwrywnh" class="animable"></rect><g id="elz5x1nxm3lbp"><rect x="346.51" y="436.94" width="52.66" height="11.39" style="opacity: 0.2; transform-origin: 372.84px 442.635px;" class="animable"></rect></g><polygon points="367.42 436.94 368.29 448.33 375.72 448.33 376.11 436.94 367.42 436.94" style="fill: rgb(224, 224, 224); transform-origin: 371.765px 442.635px;" id="elbxdy1mxfu47" class="animable"></polygon><rect x="340.73" y="448.33" width="52.66" height="11.39" style="fill: rgb(69, 52, 170); transform-origin: 367.06px 454.025px;" id="elm60wxpvnpc" class="animable"></rect><g id="eljhiu37wunaq"><rect x="340.73" y="448.33" width="52.66" height="11.39" style="opacity: 0.2; transform-origin: 367.06px 454.025px;" class="animable"></rect></g><polygon points="361.64 448.32 362.5 459.72 369.94 459.72 370.32 448.32 361.64 448.32" style="fill: rgb(224, 224, 224); transform-origin: 365.98px 454.02px;" id="elp07zt6h04x8" class="animable"></polygon><rect x="327.95" y="448.33" width="52.66" height="11.39" style="fill: rgb(69, 52, 170); transform-origin: 354.28px 454.025px;" id="elejl1erniro" class="animable"></rect><g id="elkm2ccmppk0f"><g style="opacity: 0.2; transform-origin: 354.285px 450.11px;" class="animable"><path d="M380.45,450.11c0,.15-11.72.26-26.17.26s-26.16-.11-26.16-.26,11.71-.26,26.16-.26S380.45,450,380.45,450.11Z" id="el8a2o9jzz06q" class="animable" style="transform-origin: 354.285px 450.11px;"></path></g></g><g id="el47sy1ddmup"><g style="opacity: 0.2; transform-origin: 354.265px 452.72px;" class="animable"><path d="M380.43,452.72c0,.14-11.72.26-26.16.26s-26.17-.12-26.17-.26,11.71-.26,26.17-.26S380.43,452.57,380.43,452.72Z" id="el2rtqykcq76a" class="animable" style="transform-origin: 354.265px 452.72px;"></path></g></g><g id="el0osf1kks1fy"><g style="opacity: 0.2; transform-origin: 354.265px 455.325px;" class="animable"><path d="M380.43,455.32c0,.15-11.72.27-26.16.27s-26.17-.12-26.17-.27,11.71-.26,26.17-.26S380.43,455.18,380.43,455.32Z" id="eltr2skthm73i" class="animable" style="transform-origin: 354.265px 455.325px;"></path></g></g><g id="els9c2hq7snt"><g style="opacity: 0.2; transform-origin: 354.265px 457.93px;" class="animable"><path d="M380.43,457.93c0,.15-11.72.26-26.16.26s-26.17-.11-26.17-.26,11.71-.26,26.17-.26S380.43,457.79,380.43,457.93Z" id="elwckbviele3" class="animable" style="transform-origin: 354.265px 457.93px;"></path></g></g><polygon points="348.86 448.32 349.73 459.72 357.16 459.72 357.55 448.32 348.86 448.32" style="fill: rgb(224, 224, 224); transform-origin: 353.205px 454.02px;" id="elqego8hb93yf" class="animable"></polygon><rect x="335.55" y="436.94" width="52.66" height="11.39" style="fill: rgb(69, 52, 170); transform-origin: 361.88px 442.635px;" id="el1s3jk2zi42i" class="animable"></rect><g id="el0ye4m0c55yt"><g style="opacity: 0.2; transform-origin: 361.885px 438.72px;" class="animable"><path d="M388.05,438.72c0,.15-11.72.26-26.16.26s-26.17-.11-26.17-.26,11.71-.26,26.17-.26S388.05,438.58,388.05,438.72Z" id="elu9sacd97ov" class="animable" style="transform-origin: 361.885px 438.72px;"></path></g></g><g id="elh0r5m18ijmm"><g style="opacity: 0.2; transform-origin: 361.835px 441.33px;" class="animable"><path d="M388,441.33c0,.14-11.71.26-26.16.26s-26.17-.12-26.17-.26,11.71-.26,26.17-.26S388,441.18,388,441.33Z" id="el36vcnkaca49" class="animable" style="transform-origin: 361.835px 441.33px;"></path></g></g><g id="el7s5ul9vbghs"><g style="opacity: 0.2; transform-origin: 361.835px 443.94px;" class="animable"><path d="M388,443.94c0,.14-11.71.26-26.16.26s-26.17-.12-26.17-.26,11.71-.26,26.17-.26S388,443.79,388,443.94Z" id="el4jmve3pdll6" class="animable" style="transform-origin: 361.835px 443.94px;"></path></g></g><g id="elm6t1qwbyf9a"><g style="opacity: 0.2; transform-origin: 361.835px 446.54px;" class="animable"><path d="M388,446.54c0,.15-11.71.26-26.16.26s-26.17-.11-26.17-.26,11.71-.26,26.17-.26S388,446.4,388,446.54Z" id="ellvms4uyac7" class="animable" style="transform-origin: 361.835px 446.54px;"></path></g></g><polygon points="356.46 436.94 357.33 448.33 364.76 448.33 365.15 436.94 356.46 436.94" style="fill: rgb(224, 224, 224); transform-origin: 360.805px 442.635px;" id="eluepojpe5j9j" class="animable"></polygon><rect x="97.2" y="448.33" width="52.66" height="11.39" style="fill: rgb(38, 50, 56); transform-origin: 123.53px 454.025px;" id="elm4elwihk7i" class="animable"></rect><polygon points="118.1 448.32 118.97 459.72 126.41 459.72 126.79 448.32 118.1 448.32" style="fill: rgb(224, 224, 224); transform-origin: 122.445px 454.02px;" id="el5b7d5xgum7i" class="animable"></polygon><rect x="84.42" y="448.32" width="52.66" height="11.39" style="fill: rgb(69, 90, 100); transform-origin: 110.75px 454.015px;" id="el6ohcmy0pdky" class="animable"></rect><path d="M136.91,450.11c0,.15-11.71.26-26.16.26s-26.17-.11-26.17-.26,11.72-.26,26.17-.26S136.91,450,136.91,450.11Z" style="fill: rgb(38, 50, 56); transform-origin: 110.745px 450.11px;" id="el6nxvyhn2qsl" class="animable"></path><path d="M136.89,452.72c0,.14-11.71.26-26.16.26s-26.16-.12-26.16-.26,11.71-.26,26.16-.26S136.89,452.57,136.89,452.72Z" style="fill: rgb(38, 50, 56); transform-origin: 110.73px 452.72px;" id="el6fzi4wgu65" class="animable"></path><path d="M136.89,455.32c0,.15-11.71.27-26.16.27s-26.16-.12-26.16-.27,11.71-.26,26.16-.26S136.89,455.18,136.89,455.32Z" style="fill: rgb(38, 50, 56); transform-origin: 110.73px 455.325px;" id="elo744o3qlgwe" class="animable"></path><path d="M136.89,457.93c0,.15-11.71.26-26.16.26s-26.16-.11-26.16-.26,11.71-.26,26.16-.26S136.89,457.79,136.89,457.93Z" style="fill: rgb(38, 50, 56); transform-origin: 110.73px 457.93px;" id="ela7l4o3ru44" class="animable"></path><polygon points="105.32 448.32 106.19 459.72 113.63 459.72 114.01 448.32 105.32 448.32" style="fill: rgb(245, 245, 245); transform-origin: 109.665px 454.02px;" id="elagi3hbou3w" class="animable"></polygon><rect x="90.79" y="437.06" width="52.66" height="11.39" style="fill: rgb(38, 50, 56); transform-origin: 117.12px 442.755px;" id="elqa5l5ywoqs" class="animable"></rect><polygon points="111.7 437.06 112.56 448.45 120 448.45 120.39 437.06 111.7 437.06" style="fill: rgb(224, 224, 224); transform-origin: 116.045px 442.755px;" id="elv8flnhtkt6j" class="animable"></polygon><rect x="78.01" y="437.06" width="52.66" height="11.39" style="fill: rgb(69, 90, 100); transform-origin: 104.34px 442.755px;" id="elpfjdmpohvki" class="animable"></rect><path d="M130.51,438.84c0,.15-11.72.27-26.17.27s-26.16-.12-26.16-.27,11.71-.26,26.16-.26S130.51,438.7,130.51,438.84Z" style="fill: rgb(38, 50, 56); transform-origin: 104.345px 438.845px;" id="eli7c53xll3z8" class="animable"></path><path d="M130.49,441.45c0,.15-11.72.26-26.17.26s-26.16-.11-26.16-.26,11.71-.26,26.16-.26S130.49,441.31,130.49,441.45Z" style="fill: rgb(38, 50, 56); transform-origin: 104.325px 441.45px;" id="eljh2aiitqvu" class="animable"></path><path d="M130.49,444.06c0,.14-11.72.26-26.17.26s-26.16-.12-26.16-.26,11.71-.26,26.16-.26S130.49,443.91,130.49,444.06Z" style="fill: rgb(38, 50, 56); transform-origin: 104.325px 444.06px;" id="el3ib5g28jcbm" class="animable"></path><path d="M130.49,446.66c0,.15-11.72.27-26.17.27s-26.16-.12-26.16-.27,11.71-.26,26.16-.26S130.49,446.52,130.49,446.66Z" style="fill: rgb(38, 50, 56); transform-origin: 104.325px 446.665px;" id="el0zbiteols4ei" class="animable"></path><polygon points="98.92 437.06 99.79 448.45 107.22 448.45 107.61 437.06 98.92 437.06" style="fill: rgb(245, 245, 245); transform-origin: 103.265px 442.755px;" id="ela4ulqi16n5j" class="animable"></polygon></g><defs>     <filter id="active" height="200%">         <feMorphology in="SourceAlpha" result="DILATED" operator="dilate" radius="2"></feMorphology>                <feFlood flood-color="#32DFEC" flood-opacity="1" result="PINK"></feFlood>        <feComposite in="PINK" in2="DILATED" operator="in" result="OUTLINE"></feComposite>        <feMerge>            <feMergeNode in="OUTLINE"></feMergeNode>            <feMergeNode in="SourceGraphic"></feMergeNode>        </feMerge>    </filter>    <filter id="hover" height="200%">        <feMorphology in="SourceAlpha" result="DILATED" operator="dilate" radius="2"></feMorphology>                <feFlood flood-color="#ff0000" flood-opacity="0.5" result="PINK"></feFlood>        <feComposite in="PINK" in2="DILATED" operator="in" result="OUTLINE"></feComposite>        <feMerge>            <feMergeNode in="OUTLINE"></feMergeNode>            <feMergeNode in="SourceGraphic"></feMergeNode>        </feMerge>            <feColorMatrix type="matrix" values="0   0   0   0   0                0   1   0   0   0                0   0   0   0   0                0   0   0   1   0 "></feColorMatrix>    </filter></defs></svg>